<svg version="1.1" id="Layer_1" xmlns="http://www.w3.org/2000/svg" x="0" y="0" viewBox="0 0 1200 1200" xml:space="preserve"><path fill="#3192E7" d="M978.736 159.076c-89.719 0-164.49 59.646-187.424 148.916-41.342-134.137-147.154-148.813-191.294-148.813-44.131 0-149.903 14.677-191.321 148.781-22.942-89.183-97.724-148.781-187.418-148.781C111.214 159.179 25 237.86 25 338.301c0 44.419 10.975 79.88 24.235 118.342l149.44 422.607c50.039 140.156 151.98 161.086 208.285 161.086 88.325 0 157.15-45.236 193.042-125.409 35.924 80.532 104.758 125.997 193.04 125.997 56.236 0 158.074-20.965 208.369-161.638l150.264-424.044 1.174-3.5c1.715-5.437 3.449-10.534 5.084-15.377 8-23.675 17.066-50.506 17.066-83.389.001-112.349-82.538-193.9-196.263-193.9zm70.838 259.987L899.309 843.105c-18.346 51.302-48.855 89.494-106.266 89.494-53.785 0-85.541-29.973-101.408-81.326l-90.422-282.222h-2.458L508.39 851.273c-15.896 51.363-47.661 80.732-101.434 80.732-57.419 0-87.957-37.873-106.271-89.179L151.649 421.354c-12.22-35.443-18.324-57.375-18.324-83.062 0-39.1 36.669-70.788 87.953-70.788 42.766 0 73.303 28.193 83.078 69.729l101.401 336.182h2.427L510.807 344.64c13.464-47.64 37.884-77.135 89.211-77.135 51.3 0 75.724 29.446 89.16 77.086l102.629 328.824h2.428l101.434-336.182c9.762-41.535 40.295-69.831 83.068-69.831 51.283 0 87.939 31.805 87.939 85.575 0 19.536-8.58 39.163-17.102 66.08v.006z"/></svg>