<svg xmlns="http://www.w3.org/2000/svg" width="405.797" height="415.2"><g fill="#414141"><path d="M13.461 90.642c1.888 0 3.146-1.359 3.146-3.375 0-1.891-1.169-3.234-2.803-3.234-.344 0-.614.047-.929.188l2.292-4.797h-1.633l-2.428 5.156c-.6 1.266-.794 1.953-.794 2.781.001 1.969 1.26 3.281 3.149 3.281zm0-5.281c.988 0 1.633.781 1.633 1.969 0 1.125-.659 1.891-1.633 1.891-.989 0-1.619-.766-1.619-1.938s.63-1.922 1.619-1.922zM18.631 79.423h1.514v2.984h-1.514zM22.258 89.126v1.422h6.203v-1.422h-4.346l3.342-4.281c.764-.969 1.004-1.516 1.004-2.406 0-1.859-1.244-3.109-3.072-3.109-1.348 0-2.396.672-2.877 1.828-.164.391-.209.656-.239 1.312h1.528c.045-1.141.555-1.719 1.573-1.719.959 0 1.559.656 1.559 1.688 0 .531-.165.969-.569 1.484l-4.106 5.203zM30.47 79.423h1.513v2.984H30.47zM33.271 79.423h1.514v2.984h-1.514zM10.621 160.087c-.93 0-1.363-.453-1.544-1.547H7.549c.075.797.255 1.547.809 2.125.525.547 1.334.844 2.278.844.929 0 1.679-.281 2.232-.859.645-.672.899-1.484.899-2.922 0-1.469-.27-2.328-.914-3-.465-.484-1.124-.734-1.918-.734-.629 0-1.304.203-1.754.672v-2.953h4.361v-1.422H7.789v6.062h1.393c.256-.703.779-.984 1.499-.984 1.094 0 1.573.703 1.573 2.344 0 .984-.15 1.547-.494 1.938-.27.28-.66.436-1.139.436zM15.762 150.291h1.513v2.984h-1.513zM20.152 153.916l2.082-1.891v9.391h1.53v-11.125h-1.53l-2.082 1.89zM28.184 150.197c-1.828 0-3.102 1.312-3.102 3.188v4.938c0 1.875 1.273 3.188 3.102 3.188 1.813 0 3.072-1.312 3.072-3.188v-4.938c0-1.876-1.274-3.188-3.072-3.188zm1.558 8.078c0 1.094-.614 1.812-1.559 1.812-.959 0-1.573-.719-1.573-1.812v-4.844c0-1.094.614-1.812 1.573-1.812.944 0 1.559.719 1.559 1.812v4.844zM33.34 150.291h1.513v2.984H33.34zM36.141 150.291h1.514v2.984h-1.514zM16.412 187.146v-1.422h-5.754v6.062h1.394c.255-.703.779-.984 1.499-.984 1.094 0 1.572.703 1.572 2.344 0 .984-.149 1.547-.494 1.938-.27.281-.659.438-1.139.438-.929 0-1.363-.453-1.543-1.547h-1.529c.076.797.256 1.547.81 2.125.524.547 1.334.844 2.278.844.929 0 1.678-.281 2.232-.859.645-.672.898-1.484.898-2.922 0-1.469-.27-2.328-.914-3-.465-.484-1.123-.734-1.918-.734-.629 0-1.303.203-1.753.672v-2.953h4.361zM18.631 185.725h1.514v2.984h-1.514zM28.416 188.693c0-1.766-1.304-3.062-3.102-3.062-1.813 0-3.117 1.297-3.117 3.078 0 1.047.494 1.812 1.289 2.391-.93.656-1.469 1.391-1.469 2.625 0 1.891 1.363 3.219 3.297 3.219 1.918 0 3.281-1.328 3.281-3.219 0-1.234-.539-1.969-1.469-2.625.796-.563 1.29-1.375 1.29-2.407zm-3.102-1.64c.914 0 1.573.719 1.573 1.734 0 .953-.675 1.656-1.573 1.656-.93 0-1.588-.703-1.588-1.688s.659-1.702 1.588-1.702zm0 8.468c-1.004 0-1.769-.812-1.769-1.844 0-1.047.765-1.859 1.769-1.859.988 0 1.753.812 1.753 1.891 0 1-.779 1.812-1.753 1.812zM33.271 185.725h1.514v2.984h-1.514zM30.47 185.725h1.513v2.984H30.47zM15.723 225.596c-.465-.484-1.123-.734-1.918-.734-.629 0-1.303.203-1.753.672v-2.953h4.36v-1.422h-5.754v6.062h1.394c.255-.703.779-.984 1.499-.984 1.094 0 1.572.703 1.572 2.344 0 .984-.149 1.547-.494 1.938-.27.281-.659.438-1.139.438-.929 0-1.363-.453-1.543-1.547h-1.529c.076.797.256 1.547.81 2.125.524.547 1.334.844 2.278.844.929 0 1.678-.281 2.232-.859.645-.672.898-1.484.898-2.922.001-1.471-.269-2.33-.913-3.002zM18.631 221.158h1.514v2.984h-1.514zM25.374 221.158l-2.427 5.156c-.6 1.266-.795 1.953-.795 2.781 0 1.969 1.259 3.281 3.146 3.281 1.889 0 3.146-1.359 3.146-3.375 0-1.891-1.168-3.234-2.801-3.234-.346 0-.615.047-.93.188l2.293-4.797h-1.632zm-.075 5.938c.989 0 1.634.781 1.634 1.969 0 1.125-.659 1.891-1.634 1.891-.988 0-1.617-.766-1.617-1.938s.629-1.922 1.617-1.922zM30.47 221.158h1.513v2.984H30.47zM33.271 221.158h1.514v2.984h-1.514zM15.723 261.029c-.465-.484-1.123-.734-1.918-.734-.629 0-1.303.203-1.753.672v-2.953h4.36v-1.422h-5.754v6.062h1.394c.255-.703.779-.984 1.499-.984 1.094 0 1.572.703 1.572 2.344 0 .984-.149 1.547-.494 1.938-.27.281-.659.438-1.139.438-.929 0-1.363-.453-1.543-1.547h-1.529c.076.797.256 1.547.81 2.125.524.547 1.334.844 2.278.844.929 0 1.678-.281 2.232-.859.645-.672.898-1.484.898-2.922.001-1.47-.269-2.33-.913-3.002zM18.631 256.592h1.514v2.984h-1.514zM28.761 264.561h-1.124v-2.594h-1.484v2.594h-2.652l3.746-7.969H25.6l-3.762 7.969v1.484h4.315v1.672h1.484v-1.672h1.124zM33.271 256.592h1.514v2.984h-1.514zM30.47 256.592h1.513v2.984H30.47zM15.723 296.451c-.465-.484-1.123-.734-1.918-.734-.629 0-1.303.203-1.753.672v-2.953h4.36v-1.422h-5.754v6.062h1.394c.255-.703.779-.984 1.499-.984 1.094 0 1.572.703 1.572 2.344 0 .984-.149 1.547-.494 1.938-.27.281-.659.438-1.139.438-.929 0-1.363-.453-1.543-1.547h-1.529c.076.797.256 1.547.81 2.125.524.547 1.334.844 2.278.844.929 0 1.678-.281 2.232-.859.645-.672.898-1.484.898-2.922.001-1.471-.269-2.33-.913-3.002zM18.631 292.014h1.514v2.984h-1.514zM22.258 301.717v1.422h6.203v-1.422h-4.346l3.342-4.281c.764-.969 1.004-1.516 1.004-2.406 0-1.859-1.244-3.109-3.072-3.109-1.348 0-2.396.672-2.877 1.828-.164.391-.209.656-.239 1.312h1.528c.045-1.141.555-1.719 1.573-1.719.959 0 1.559.656 1.559 1.688 0 .531-.165.969-.569 1.484l-4.106 5.203zM33.271 292.014h1.514v2.984h-1.514zM30.47 292.014h1.513v2.984H30.47zM11.445 373.999h1.483v-1.672h1.125v-1.484h-1.125v-2.594h-1.483v2.594H8.793l3.746-7.969h-1.648l-3.762 7.969v1.484h4.316zM15.762 362.874h1.513v2.984h-1.513zM22.234 373.999h1.53v-11.125h-1.53l-2.082 1.891v1.734l2.082-1.891zM31.256 365.968c0-1.875-1.273-3.188-3.072-3.188-1.828 0-3.102 1.312-3.102 3.188v4.938c0 1.875 1.273 3.188 3.102 3.188 1.813 0 3.072-1.312 3.072-3.188v-4.938zm-1.514 4.89c0 1.094-.614 1.812-1.559 1.812-.959 0-1.573-.719-1.573-1.812v-4.844c0-1.094.614-1.812 1.573-1.812.944 0 1.559.719 1.559 1.812v4.844zM33.34 362.874h1.513v2.984H33.34zM36.141 362.874h1.514v2.984h-1.514zM15.798 403.683h-1.484v2.593h-2.652l3.746-7.968H13.76l-3.761 7.968v1.485h4.315v1.672h1.484v-1.672h1.124v-1.485h-1.124zM18.631 398.308h1.514v2.984h-1.514zM27.127 403.683c.795-.562 1.289-1.375 1.289-2.406 0-1.766-1.304-3.062-3.102-3.062-1.813 0-3.117 1.297-3.117 3.078 0 1.047.494 1.812 1.289 2.391-.93.656-1.469 1.391-1.469 2.625 0 1.891 1.363 3.219 3.297 3.219 1.918 0 3.281-1.328 3.281-3.219.001-1.236-.538-1.97-1.468-2.626zm-1.813-4.047c.914 0 1.573.719 1.573 1.734 0 .953-.675 1.656-1.573 1.656-.93 0-1.588-.703-1.588-1.688s.659-1.702 1.588-1.702zm0 8.468c-1.004 0-1.769-.812-1.769-1.844 0-1.047.765-1.859 1.769-1.859.988 0 1.753.812 1.753 1.891 0 1-.779 1.812-1.753 1.812zM30.47 398.308h1.513v2.984H30.47zM33.271 398.308h1.514v2.984h-1.514zM13.461 55.208c1.888 0 3.146-1.359 3.146-3.375 0-1.891-1.169-3.234-2.803-3.234-.344 0-.614.047-.929.188l2.292-4.797h-1.633l-2.428 5.156c-.6 1.266-.794 1.953-.794 2.781.001 1.969 1.26 3.281 3.149 3.281zm0-5.281c.988 0 1.633.781 1.633 1.969 0 1.125-.659 1.891-1.633 1.891-.989 0-1.619-.766-1.619-1.938s.63-1.922 1.619-1.922zM18.631 43.99h1.514v2.984h-1.514zM26.153 55.115h1.484v-1.672h1.124v-1.485h-1.124v-2.593h-1.484v2.593h-2.652l3.746-7.968H25.6l-3.762 7.968v1.485h4.315zM33.271 43.99h1.514v2.984h-1.514zM30.47 43.99h1.513v2.984H30.47zM13.461 19.775c1.888 0 3.146-1.359 3.146-3.375 0-1.891-1.169-3.234-2.803-3.234-.344 0-.614.047-.929.188l2.292-4.797h-1.633l-2.428 5.156c-.6 1.266-.794 1.953-.794 2.781.001 1.969 1.26 3.281 3.149 3.281zm0-5.281c.988 0 1.633.781 1.633 1.969 0 1.125-.659 1.891-1.633 1.891-.989 0-1.619-.766-1.619-1.938s.63-1.922 1.619-1.922zM18.631 8.557h1.514v2.984h-1.514zM25.299 19.775c1.889 0 3.146-1.359 3.146-3.375 0-1.891-1.168-3.234-2.801-3.234-.346 0-.615.047-.93.188l2.293-4.797h-1.634l-2.427 5.156c-.6 1.266-.795 1.953-.795 2.781.001 1.969 1.26 3.281 3.148 3.281zm0-5.281c.989 0 1.634.781 1.634 1.969 0 1.125-.659 1.891-1.634 1.891-.988 0-1.617-.766-1.617-1.938s.629-1.922 1.617-1.922zM30.47 8.557h1.513v2.984H30.47zM33.271 8.557h1.514v2.984h-1.514zM13.19 125.952c2.008 0 3.341-1.391 3.341-3.453 0-1.906-1.198-3.312-2.816-3.312-.3 0-.51.031-.779.141l2.218-4.594h-2.128l-2.248 4.812c-.703 1.516-.898 2.156-.898 3.016-.001 2.031 1.333 3.39 3.31 3.39zm.015-5.078c.84 0 1.379.656 1.379 1.656 0 .953-.555 1.594-1.379 1.594-.839 0-1.379-.641-1.379-1.625s.54-1.625 1.379-1.625zM18.316 114.733h1.842v3.297h-1.842zM22.002 122.64c0 1.953 1.334 3.312 3.252 3.312s3.236-1.359 3.236-3.312v-4.688c0-1.953-1.334-3.312-3.236-3.312-1.918 0-3.252 1.359-3.252 3.312v4.688zm1.948-4.657c0-.906.524-1.516 1.304-1.516s1.289.594 1.289 1.516v4.641c0 .906-.51 1.5-1.289 1.5-.794 0-1.304-.594-1.304-1.5v-4.641zM33.421 114.733h1.813v3.297h-1.813zM30.334 114.733h1.828v3.297h-1.828zM13.266 336.726c-.779 0-1.154-.406-1.304-1.375h-1.948c.045.531.075.75.165 1.062.135.5.374.906.704 1.25.555.578 1.394.891 2.383.891.974 0 1.753-.297 2.352-.906.675-.688.945-1.5.945-2.922s-.285-2.297-.959-2.984c-.48-.5-1.154-.75-1.963-.75-.66 0-1.185.172-1.634.562v-2.391h4.315v-1.828h-6.084v6.281h1.783c.225-.625.629-.906 1.289-.906.898 0 1.303.625 1.303 2.016s-.404 2-1.347 2zM18.316 327.335h1.842v3.297h-1.842zM22.002 335.241c0 1.953 1.334 3.312 3.252 3.312s3.236-1.359 3.236-3.312v-4.688c0-1.953-1.334-3.312-3.236-3.312-1.918 0-3.252 1.359-3.252 3.312v4.688zm1.948-4.656c0-.906.524-1.516 1.304-1.516s1.289.594 1.289 1.516v4.641c0 .906-.51 1.5-1.289 1.5-.794 0-1.304-.594-1.304-1.5v-4.641zM33.421 327.335h1.813v3.297h-1.813zM30.334 327.335h1.828v3.297h-1.828zM38.668 225.66h366.667v2.126H38.668zM38.668 243.909h366.667v1.062H38.668zM38.668 261.095h366.667v2.127H38.668zM38.668 296.528h366.667v2.127H38.668zM38.668 331.96h366.667v2.127H38.668zM38.668 314.775h366.667v1.062H38.668zM38.668 367.391h366.667v2.127H38.668zM38.668 402.824h366.667v2.127H38.668zM38.668 350.206h366.667v1.062H38.668zM38.668 279.344h366.667v1.062H38.668zM38.668 385.638h366.667v1.062H38.668zM38.668 48.487h366.667v2.126H38.668zM38.668 31.301h366.667v1.063H38.668zM38.668 13.053h366.667v2.126H38.668zM38.668 66.735h366.667v1.063H38.668zM38.668 83.921h366.667v2.126H38.668zM38.668 102.17h366.667v1.063H38.668zM38.668 119.356h366.667v2.126H38.668zM38.668 137.605h366.667v1.063H38.668zM38.668 154.791h366.667v2.126H38.668zM38.668 173.04h366.667v1.062H38.668zM38.668 190.226h366.667v2.127H38.668zM38.668 208.476h366.667v1.062H38.668z"/></g><path fill="#424143" d="M297.952 319.913l39.383.27-8.818-111.177-30.904-8.843-52.17-14.176h-83.221L108.59 200.13v.187L80 213.506l-12 100.49 40 1.841.59-78.489v113.16h189.053V237.184l.309 82.729z"/><path fill="#E7E7E7" d="M297.643 218.529c-63.029-5.498-126.06 5.498-189.089 0v-16.17c63.029 5.497 126.06-5.498 189.089 0v16.17zM297.643 246.811c-63.029-5.498-126.06 5.498-189.089 0v-16.17c63.029 5.498 126.06-5.498 189.089 0v16.17zM297.643 275.094c-63.029-5.498-126.06 5.498-189.089 0v-16.17c63.029 5.498 126.06-5.498 189.089 0v16.17zM297.643 303.375c-63.029-5.498-126.06 5.498-189.089 0v-16.17c63.029 5.498 126.06-5.498 189.089 0v16.17zM297.643 331.658c-63.029-5.498-126.06 5.498-189.089 0v-16.172c63.029 5.498 126.06-5.498 189.089 0v16.172z"/><g fill="#E7E7E7"><path d="M297.712 255.754l.049 13.001c11.864 1.029 23.729 1.329 35.593 1.248l-1.03-12.99c-11.537.057-23.074-.256-34.612-1.259zM335.157 292.724l-1.03-12.991c-12.11.101-24.22-.19-36.329-1.24l.048 13.001c12.437 1.075 24.873 1.355 37.311 1.23zM297.643 223.279c10.702.934 21.404 1.271 32.106 1.271l-1.031-13c-10.358-.021-20.717-.365-31.075-1.269v12.998zM336.958 315.434l-1.029-12.983c-12.683.145-25.364-.124-38.046-1.22l.048 13.003c13.009 1.121 26.018 1.371 39.027 1.2zM297.643 233.015v4.169l.033 8.831c11.292.983 22.584 1.307 33.876 1.267l-1.031-12.993c-10.959.016-21.919-.318-32.878-1.274z"/></g><g fill="#E7E7E7"><path d="M108.2 289.301l.098-12.99c-11.883-1.021-23.767-1.314-35.65-1.227l-1.553 13.008c12.367-.126 24.736.149 37.105 1.209zM108.669 276.34l-.079-.006v12.998l.079.006V276.34zM108.371 266.582l.098-12.989c-11.035-.955-22.07-1.284-33.104-1.259l-1.553 13.008c11.519-.061 23.039.247 34.559 1.24zM108.669 221.14v-12.997c-5-.436-10-.739-15-.942L80 213.506l-.761 6.369c9.811.054 19.62.409 29.43 1.265zM108.669 299.072l-.079-.006v12.999l.079.006v-12.999zM108.029 312.021l.098-12.991c-12.732-1.087-25.465-1.344-38.197-1.188l-1.555 13.021c13.218-.196 26.436.033 39.654 1.158zM108.669 253.608l-.079-.006V266.6l.079.006v-12.998zM108.669 230.875c-10.197-.89-20.394-1.236-30.591-1.268L76.526 242.6c10.671 0 21.343.336 32.015 1.263l.049-6.515v6.519l.079.006v-12.998z"/></g><g><path fill="#DBB69A" d="M339.457 354.005l-3.329-26.595c-.457-3.648-3.506-5.838-7.128-5.564l-26.937 7.957c-2.86 1.623-4.78 5.191-4.036 8.673l-25.102 6.422 7.022 28.188 25.557-6.535c1.479 2.119 4.049 3.179 6.544 2.441l22.281-6.595c3.276-.968 5.582-4.746 5.128-8.392zM132.409 337.838l-25.102-6.422c.744-3.481-1.176-7.05-4.036-8.673l-26.937-7.957c-3.622-.273-6.671 1.916-7.128 5.564l-3.329 26.595c-.454 3.646 1.852 7.424 5.127 8.392l22.281 6.595c2.495.737 5.065-.322 6.544-2.442l25.557 6.536 7.023-28.188z"/><linearGradient id="a" x1="202.138" x2="202.138" y1="407.961" y2="294.575" gradientUnits="userSpaceOnUse"><stop offset=".005" stop-color="#010101"/><stop offset=".005" stop-color="#050505"/><stop offset=".007" stop-color="#131414"/><stop offset=".009" stop-color="#1b1b1b"/><stop offset=".012" stop-color="#1f1f1f"/><stop offset=".02" stop-color="#202020"/><stop offset=".028" stop-color="#212121"/><stop offset=".032" stop-color="#252525"/><stop offset=".034" stop-color="#2a2a2a"/><stop offset=".035" stop-color="#303030"/><stop offset=".045" stop-color="#010101"/><stop offset=".045" stop-color="#050505"/><stop offset=".047" stop-color="#131414"/><stop offset=".049" stop-color="#1b1b1b"/><stop offset=".052" stop-color="#1f1f1f"/><stop offset=".06" stop-color="#202020"/><stop offset=".068" stop-color="#212121"/><stop offset=".071" stop-color="#252525"/><stop offset=".074" stop-color="#2a2a2a"/><stop offset=".075" stop-color="#303030"/><stop offset=".085" stop-color="#010101"/><stop offset=".085" stop-color="#050505"/><stop offset=".087" stop-color="#131414"/><stop offset=".089" stop-color="#1b1b1b"/><stop offset=".092" stop-color="#1f1f1f"/><stop offset=".1" stop-color="#202020"/><stop offset=".108" stop-color="#212121"/><stop offset=".112" stop-color="#252525"/><stop offset=".114" stop-color="#2a2a2a"/><stop offset=".115" stop-color="#303030"/><stop offset=".125" stop-color="#010101"/><stop offset=".125" stop-color="#050505"/><stop offset=".127" stop-color="#131414"/><stop offset=".129" stop-color="#1b1b1b"/><stop offset=".132" stop-color="#1f1f1f"/><stop offset=".14" stop-color="#202020"/><stop offset=".148" stop-color="#212121"/><stop offset=".151" stop-color="#252525"/><stop offset=".154" stop-color="#2a2a2a"/><stop offset=".155" stop-color="#303030"/><stop offset=".165" stop-color="#010101"/><stop offset=".165" stop-color="#050505"/><stop offset=".167" stop-color="#131414"/><stop offset=".169" stop-color="#1b1b1b"/><stop offset=".172" stop-color="#1f1f1f"/><stop offset=".18" stop-color="#202020"/><stop offset=".188" stop-color="#212121"/><stop offset=".192" stop-color="#252525"/><stop offset=".194" stop-color="#2a2a2a"/><stop offset=".195" stop-color="#303030"/><stop offset=".205" stop-color="#010101"/><stop offset=".205" stop-color="#050505"/><stop offset=".207" stop-color="#131414"/><stop offset=".209" stop-color="#1b1b1b"/><stop offset=".212" stop-color="#1f1f1f"/><stop offset=".22" stop-color="#202020"/><stop offset=".228" stop-color="#212121"/><stop offset=".232" stop-color="#252525"/><stop offset=".234" stop-color="#2a2a2a"/><stop offset=".235" stop-color="#303030"/><stop offset=".245" stop-color="#010101"/><stop offset=".245" stop-color="#050505"/><stop offset=".247" stop-color="#131414"/><stop offset=".249" stop-color="#1b1b1b"/><stop offset=".252" stop-color="#1f1f1f"/><stop offset=".26" stop-color="#202020"/><stop offset=".268" stop-color="#212121"/><stop offset=".272" stop-color="#252525"/><stop offset=".274" stop-color="#2a2a2a"/><stop offset=".275" stop-color="#303030"/><stop offset=".285" stop-color="#010101"/><stop offset=".285" stop-color="#050505"/><stop offset=".287" stop-color="#131414"/><stop offset=".289" stop-color="#1b1b1b"/><stop offset=".292" stop-color="#1f1f1f"/><stop offset=".3" stop-color="#202020"/><stop offset=".308" stop-color="#212121"/><stop offset=".311" stop-color="#252525"/><stop offset=".314" stop-color="#2a2a2a"/><stop offset=".315" stop-color="#303030"/><stop offset=".325" stop-color="#010101"/><stop offset=".325" stop-color="#050505"/><stop offset=".327" stop-color="#131414"/><stop offset=".329" stop-color="#1b1b1b"/><stop offset=".332" stop-color="#1f1f1f"/><stop offset=".34" stop-color="#202020"/><stop offset=".348" stop-color="#212121"/><stop offset=".351" stop-color="#252525"/><stop offset=".354" stop-color="#2a2a2a"/><stop offset=".355" stop-color="#303030"/><stop offset=".365" stop-color="#010101"/><stop offset=".365" stop-color="#050505"/><stop offset=".367" stop-color="#131414"/><stop offset=".369" stop-color="#1b1b1b"/><stop offset=".372" stop-color="#1f1f1f"/><stop offset=".38" stop-color="#202020"/><stop offset=".388" stop-color="#212121"/><stop offset=".392" stop-color="#252525"/><stop offset=".394" stop-color="#2a2a2a"/><stop offset=".395" stop-color="#303030"/><stop offset=".405" stop-color="#010101"/><stop offset=".405" stop-color="#050505"/><stop offset=".407" stop-color="#131414"/><stop offset=".409" stop-color="#1b1b1b"/><stop offset=".412" stop-color="#1f1f1f"/><stop offset=".42" stop-color="#202020"/><stop offset=".428" stop-color="#212121"/><stop offset=".431" stop-color="#252525"/><stop offset=".434" stop-color="#2a2a2a"/><stop offset=".435" stop-color="#303030"/><stop offset=".445" stop-color="#010101"/><stop offset=".445" stop-color="#050505"/><stop offset=".447" stop-color="#131414"/><stop offset=".449" stop-color="#1b1b1b"/><stop offset=".452" stop-color="#1f1f1f"/><stop offset=".46" stop-color="#202020"/><stop offset=".468" stop-color="#212121"/><stop offset=".471" stop-color="#252525"/><stop offset=".474" stop-color="#2a2a2a"/><stop offset=".475" stop-color="#303030"/><stop offset=".485" stop-color="#010101"/><stop offset=".485" stop-color="#050505"/><stop offset=".487" stop-color="#131414"/><stop offset=".489" stop-color="#1b1b1b"/><stop offset=".492" stop-color="#1f1f1f"/><stop offset=".5" stop-color="#202020"/><stop offset=".508" stop-color="#212121"/><stop offset=".511" stop-color="#252525"/><stop offset=".514" stop-color="#2a2a2a"/><stop offset=".515" stop-color="#303030"/><stop offset=".525" stop-color="#010101"/><stop offset=".525" stop-color="#050505"/><stop offset=".527" stop-color="#131414"/><stop offset=".529" stop-color="#1b1b1b"/><stop offset=".532" stop-color="#1f1f1f"/><stop offset=".54" stop-color="#202020"/><stop offset=".548" stop-color="#212121"/><stop offset=".551" stop-color="#252525"/><stop offset=".554" stop-color="#2a2a2a"/><stop offset=".555" stop-color="#303030"/><stop offset=".565" stop-color="#010101"/><stop offset=".565" stop-color="#050505"/><stop offset=".567" stop-color="#131414"/><stop offset=".569" stop-color="#1b1b1b"/><stop offset=".572" stop-color="#1f1f1f"/><stop offset=".58" stop-color="#202020"/><stop offset=".588" stop-color="#212121"/><stop offset=".592" stop-color="#252525"/><stop offset=".594" stop-color="#2a2a2a"/><stop offset=".595" stop-color="#303030"/><stop offset=".605" stop-color="#010101"/><stop offset=".605" stop-color="#050505"/><stop offset=".607" stop-color="#131414"/><stop offset=".609" stop-color="#1b1b1b"/><stop offset=".612" stop-color="#1f1f1f"/><stop offset=".62" stop-color="#202020"/><stop offset=".628" stop-color="#212121"/><stop offset=".631" stop-color="#252525"/><stop offset=".634" stop-color="#2a2a2a"/><stop offset=".635" stop-color="#303030"/><stop offset=".645" stop-color="#010101"/><stop offset=".645" stop-color="#050505"/><stop offset=".647" stop-color="#131414"/><stop offset=".649" stop-color="#1b1b1b"/><stop offset=".652" stop-color="#1f1f1f"/><stop offset=".66" stop-color="#202020"/><stop offset=".668" stop-color="#212121"/><stop offset=".671" stop-color="#252525"/><stop offset=".674" stop-color="#2a2a2a"/><stop offset=".675" stop-color="#303030"/><stop offset=".685" stop-color="#010101"/><stop offset=".685" stop-color="#050505"/><stop offset=".687" stop-color="#131414"/><stop offset=".689" stop-color="#1b1b1b"/><stop offset=".692" stop-color="#1f1f1f"/><stop offset=".7" stop-color="#202020"/><stop offset=".708" stop-color="#212121"/><stop offset=".712" stop-color="#252525"/><stop offset=".714" stop-color="#2a2a2a"/><stop offset=".715" stop-color="#303030"/><stop offset=".725" stop-color="#010101"/><stop offset=".725" stop-color="#050505"/><stop offset=".727" stop-color="#131414"/><stop offset=".729" stop-color="#1b1b1b"/><stop offset=".732" stop-color="#1f1f1f"/><stop offset=".74" stop-color="#202020"/><stop offset=".748" stop-color="#212121"/><stop offset=".751" stop-color="#252525"/><stop offset=".754" stop-color="#2a2a2a"/><stop offset=".755" stop-color="#303030"/><stop offset=".765" stop-color="#010101"/><stop offset=".765" stop-color="#050505"/><stop offset=".767" stop-color="#131414"/><stop offset=".769" stop-color="#1b1b1b"/><stop offset=".772" stop-color="#1f1f1f"/><stop offset=".78" stop-color="#202020"/><stop offset=".788" stop-color="#212121"/><stop offset=".791" stop-color="#252525"/><stop offset=".794" stop-color="#2a2a2a"/><stop offset=".795" stop-color="#303030"/><stop offset=".805" stop-color="#010101"/><stop offset=".805" stop-color="#050505"/><stop offset=".807" stop-color="#131414"/><stop offset=".809" stop-color="#1b1b1b"/><stop offset=".812" stop-color="#1f1f1f"/><stop offset=".82" stop-color="#202020"/><stop offset=".828" stop-color="#212121"/><stop offset=".832" stop-color="#252525"/><stop offset=".834" stop-color="#2a2a2a"/><stop offset=".835" stop-color="#303030"/><stop offset=".845" stop-color="#010101"/><stop offset=".845" stop-color="#050505"/><stop offset=".847" stop-color="#131414"/><stop offset=".849" stop-color="#1b1b1b"/><stop offset=".852" stop-color="#1f1f1f"/><stop offset=".86" stop-color="#202020"/><stop offset=".868" stop-color="#212121"/><stop offset=".872" stop-color="#252525"/><stop offset=".874" stop-color="#2a2a2a"/><stop offset=".875" stop-color="#303030"/><stop offset=".885" stop-color="#010101"/><stop offset=".885" stop-color="#050505"/><stop offset=".887" stop-color="#131414"/><stop offset=".889" stop-color="#1b1b1b"/><stop offset=".892" stop-color="#1f1f1f"/><stop offset=".9" stop-color="#202020"/><stop offset=".908" stop-color="#212121"/><stop offset=".911" stop-color="#252525"/><stop offset=".914" stop-color="#2a2a2a"/><stop offset=".915" stop-color="#303030"/><stop offset=".925" stop-color="#010101"/><stop offset=".925" stop-color="#050505"/><stop offset=".927" stop-color="#131414"/><stop offset=".929" stop-color="#1b1b1b"/><stop offset=".932" stop-color="#1f1f1f"/><stop offset=".94" stop-color="#202020"/><stop offset=".948" stop-color="#212121"/><stop offset=".952" stop-color="#252525"/><stop offset=".954" stop-color="#2a2a2a"/><stop offset=".955" stop-color="#303030"/><stop offset=".965" stop-color="#010101"/><stop offset=".965" stop-color="#050505"/><stop offset=".967" stop-color="#131414"/><stop offset=".969" stop-color="#1b1b1b"/><stop offset=".972" stop-color="#1f1f1f"/><stop offset=".98" stop-color="#202020"/><stop offset=".987" stop-color="#212121"/><stop offset=".99" stop-color="#252525"/><stop offset=".992" stop-color="#2b2b2a"/><stop offset=".993" stop-color="#323232"/><stop offset=".995" stop-color="#3c3c3c"/><stop offset=".995" stop-color="#414141"/></linearGradient><path fill="url(#a)" d="M75.346 294.575a.708.708 0 0 0-.708.709v111.968c0 .392.316.709.708.709h253.583a.71.71 0 0 0 .709-.709V295.284a.71.71 0 0 0-.709-.709H75.346z"/><linearGradient id="b" x1="76.763" x2="76.763" y1="407.961" y2="294.575" gradientUnits="userSpaceOnUse"><stop offset=".005" stop-color="#010101"/><stop offset=".007" stop-color="#0a0b0b"/><stop offset=".011" stop-color="#101110"/><stop offset=".02" stop-color="#121212"/><stop offset=".98" stop-color="#121212"/><stop offset=".987" stop-color="#131313"/><stop offset=".989" stop-color="#181818"/><stop offset=".991" stop-color="#1f1f1f"/><stop offset=".993" stop-color="#272828"/><stop offset=".994" stop-color="#323232"/><stop offset=".995" stop-color="#3e3e3e"/><stop offset=".995" stop-color="#414141"/></linearGradient><path fill="url(#b)" d="M75.346 294.575a.708.708 0 0 0-.708.709v111.968c0 .392.316.709.708.709h3.542V294.575h-3.542z"/><linearGradient id="c" x1="74.636" x2="78.888" y1="351.269" y2="351.269" gradientUnits="userSpaceOnUse"><stop offset="0" stop-color="#fff"/><stop offset=".069" stop-color="#f9f9f9"/><stop offset=".093" stop-color="#ebeae9"/><stop offset=".111" stop-color="#d9d7d7"/><stop offset=".125" stop-color="#c1bebe"/><stop offset=".137" stop-color="#a5a2a1"/><stop offset=".148" stop-color="#858281"/><stop offset=".158" stop-color="#636160"/><stop offset=".167" stop-color="#434140"/><stop offset=".175" stop-color="#222121"/><stop offset=".18" stop-color="#010101"/></linearGradient><path fill="url(#c)" d="M75.345 294.575a.71.71 0 0 0-.709.709v111.968a.71.71 0 0 0 .709.709h3.543V294.575h-3.543z" opacity=".13"/><g><linearGradient id="d" x1="-113.561" x2="-113.561" y1="407.962" y2="294.576" gradientTransform="matrix(-1 0 0 1 213.95 0)" gradientUnits="userSpaceOnUse"><stop offset=".005" stop-color="#010101"/><stop offset=".007" stop-color="#0a0b0b"/><stop offset=".011" stop-color="#101110"/><stop offset=".02" stop-color="#121212"/><stop offset=".98" stop-color="#121212"/><stop offset=".987" stop-color="#131313"/><stop offset=".989" stop-color="#181818"/><stop offset=".991" stop-color="#1f1f1f"/><stop offset=".993" stop-color="#272828"/><stop offset=".994" stop-color="#323232"/><stop offset=".995" stop-color="#3e3e3e"/><stop offset=".995" stop-color="#414141"/></linearGradient><path fill="url(#d)" d="M328.929 294.575c.391 0 .707.317.707.709v111.968a.707.707 0 0 1-.707.709h-3.543V294.575h3.543z"/><linearGradient id="e" x1="-115.688" x2="-111.436" y1="351.269" y2="351.269" gradientTransform="matrix(-1 0 0 1 213.95 0)" gradientUnits="userSpaceOnUse"><stop offset="0" stop-color="#fff"/><stop offset=".069" stop-color="#f9f9f9"/><stop offset=".093" stop-color="#ebeae9"/><stop offset=".111" stop-color="#d9d7d7"/><stop offset=".125" stop-color="#c1bebe"/><stop offset=".137" stop-color="#a5a2a1"/><stop offset=".148" stop-color="#858281"/><stop offset=".158" stop-color="#636160"/><stop offset=".167" stop-color="#434140"/><stop offset=".175" stop-color="#222121"/><stop offset=".18" stop-color="#010101"/></linearGradient><path fill="url(#e)" d="M328.929 294.575a.71.71 0 0 1 .709.709v111.968a.71.71 0 0 1-.709.709h-3.543V294.575h3.543z" opacity=".13"/></g><g><path fill="#DBB69A" d="M343.71 334.249c.682 2.702-1.275 5.547-4.349 6.322l-19.789 5.001c-3.072.779-6.146-.795-6.827-3.497-.679-2.7 1.277-5.544 4.353-6.322l19.788-5.001c3.074-.778 6.144.794 6.824 3.497zM344.944 344.931c.683 2.701-1.497 5.603-4.844 6.444l-14.147 3.571c-3.345.842-6.639-.674-7.322-3.374-.683-2.699 1.498-5.601 4.845-6.444l14.146-3.574c3.346-.843 6.641.677 7.322 3.377zM344.301 356.075c.678 2.699-1.5 5.6-4.846 6.444l-7.646 1.931c-3.347.846-6.641-.675-7.322-3.375-.682-2.699 1.5-5.602 4.846-6.445l7.643-1.93c3.346-.844 6.643.676 7.325 3.375z"/><path fill="#FFF" d="M314.618 341.59c-.516-2.034.199-3.987 1.592-4.345 1.393-.354 2.956 1.021 3.471 3.055.521 2.032-.195 3.989-1.586 4.342-1.394.354-2.959-1.017-3.477-3.052z"/><path fill="#DBB69A" d="M344.936 322.928c.682 2.701-1.499 5.601-4.849 6.447l-18.031 4.553c-3.349.844-6.644-.676-7.326-3.376-.681-2.7 1.499-5.603 4.848-6.447l18.034-4.553c3.346-.843 6.642.676 7.324 3.376z"/><path fill="#FFF" d="M317.262 329.9c-.518-2.034.196-3.988 1.591-4.344 1.393-.355 2.954 1.018 3.469 3.054.521 2.032-.195 3.99-1.589 4.342-1.393.356-2.953-1.018-3.471-3.052zM319.777 351.551c-.519-2.035.197-3.987 1.588-4.346 1.392-.353 2.955 1.022 3.473 3.054.52 2.035-.197 3.988-1.589 4.346-1.394.353-2.955-1.022-3.472-3.054zM325.941 360.464c-.485-1.91.025-3.705 1.133-3.986 1.113-.287 2.421 1.047 2.905 2.957.488 1.91-.025 3.704-1.134 3.985-1.113.285-2.417-1.047-2.904-2.956z"/></g><g><path fill="#DBB69A" d="M61.624 327.189c-.682 2.702 1.275 5.547 4.349 6.322l19.789 5.001c3.072.779 6.146-.795 6.827-3.497.679-2.7-1.277-5.544-4.353-6.322l-19.788-5.001c-3.074-.778-6.144.794-6.824 3.497zM60.39 337.871c-.683 2.701 1.497 5.603 4.844 6.444l14.147 3.571c3.345.842 6.639-.674 7.322-3.374.683-2.699-1.498-5.601-4.845-6.444l-14.146-3.574c-3.346-.843-6.641.678-7.322 3.377zM61.033 349.016c-.678 2.699 1.5 5.6 4.846 6.444l7.646 1.931c3.347.846 6.641-.675 7.322-3.375.682-2.699-1.5-5.602-4.846-6.445l-7.643-1.93c-3.346-.844-6.643.675-7.325 3.375z"/><path fill="#FFF" d="M90.716 334.53c.516-2.034-.199-3.987-1.592-4.345-1.393-.354-2.956 1.021-3.471 3.055-.521 2.032.195 3.989 1.586 4.342 1.394.355 2.959-1.017 3.477-3.052z"/><path fill="#DBB69A" d="M60.398 315.868c-.682 2.701 1.499 5.601 4.849 6.447l18.031 4.553c3.349.844 6.644-.676 7.326-3.376.681-2.7-1.499-5.603-4.848-6.447l-18.034-4.553c-3.347-.843-6.642.676-7.324 3.376z"/><path fill="#FFF" d="M88.072 322.841c.518-2.034-.196-3.988-1.591-4.344-1.393-.355-2.954 1.018-3.469 3.054-.521 2.032.195 3.99 1.589 4.342 1.393.355 2.953-1.019 3.471-3.052zM85.557 344.491c.519-2.035-.197-3.987-1.588-4.346-1.392-.353-2.955 1.022-3.473 3.054-.52 2.035.197 3.988 1.589 4.346 1.394.353 2.955-1.022 3.472-3.054zM79.393 353.404c.485-1.91-.025-3.705-1.133-3.986-1.113-.287-2.421 1.047-2.905 2.957-.488 1.91.025 3.704 1.134 3.985 1.113.286 2.417-1.047 2.904-2.956z"/></g></g></svg>