<svg width="47" height="38" viewBox="0 0 47 38" fill="none" xmlns="http://www.w3.org/2000/svg">
<path d="M23.3524 38L0 12.0936L8.11266 0H38.2321L46.3291 12.0705L23.3524 38Z" fill="#FF3997"/>
<path d="M23.3582 37.9934L46.329 12.0705L38.2321 0H23.3582V37.9934Z" fill="#D6298C"/>
<path d="M0 12.0938L23.3524 38.0001L46.264 12.1445L0 12.0938Z" fill="#FF5CA8"/>
<path d="M23.358 12.1191V37.9933L46.264 12.1442L23.358 12.1191Z" fill="#FF3997"/>
<path d="M23.3523 38.0002L13.7462 12.1445H32.6386L23.3523 38.0002Z" fill="#FF3997"/>
<path d="M32.6387 12.1443H13.7462L23.3586 0L32.6387 12.1443Z" fill="#D6298C"/>
<path d="M0 12.0936L13.7463 12.1443L8.11265 0L0 12.0936Z" fill="#D6298C"/>
<path d="M46.3849 12.0936L32.6387 12.1443L38.2724 0L46.3849 12.0936Z" fill="#FF5CA8"/>
<path d="M23.3582 12.1445V37.9841L32.6388 12.1445H23.3582Z" fill="#D6298C"/>
<path d="M23.3582 0.000976562V12.1443H32.6388L23.3582 0.000976562Z" fill="#BF1B81"/>
<path d="M46.385 12.0936L32.6388 12.1443L38.2725 0L46.385 12.0936Z" fill="#BF1B81"/>
</svg>
