<svg width="39" height="38" viewBox="0 0 39 38" fill="none" xmlns="http://www.w3.org/2000/svg">
<path d="M27.812 19.4341L23.8803 21.5003C22.6985 22.1247 21.1972 22.0057 20.1195 21.2253C19.0195 20.4226 18.4769 19.0848 18.7073 17.7395L19.458 13.3619L16.2769 10.2626C15.2959 9.31121 14.954 7.90649 15.3702 6.60582C15.6378 5.78082 16.1952 5.1342 16.9013 4.70312H3.56755C1.59797 4.70312 0 6.30109 0 8.27068V27.2976C0 29.2672 1.59797 30.8652 3.56755 30.8652H4.75673V36.8111C4.75673 37.2942 5.0466 37.7253 5.49254 37.9111C5.64119 37.9705 5.79727 38.0003 5.94592 38.0003C6.25808 38.0003 6.56281 37.8813 6.78578 37.6509L13.5716 30.8652H29.7296C31.6992 30.8652 33.2971 29.2672 33.2971 27.2976V21.9017C32.7694 21.8868 32.2417 21.7605 31.7438 21.5078L27.812 19.4341Z" fill="#2196F3"/>
<path d="M37.9942 7.34135C37.853 6.91027 37.4814 6.59811 37.0354 6.53122L31.4017 5.71366L28.8821 0.607598C28.4807 -0.202533 27.1503 -0.202533 26.749 0.607598L24.2294 5.71358L18.5956 6.53115C18.1497 6.59804 17.7781 6.9102 17.6369 7.34128C17.4957 7.77236 17.6146 8.2406 17.9342 8.56019L22.0071 12.5365L21.0483 18.148C20.974 18.5939 21.1524 19.0473 21.524 19.3074C21.7321 19.4561 21.9774 19.5378 22.2227 19.5378C22.4159 19.5378 22.6017 19.4932 22.7727 19.3966L27.8118 16.7507L32.851 19.3966C33.2523 19.6047 33.7354 19.575 34.0996 19.3074C34.4638 19.0399 34.6496 18.5939 34.5753 18.148L33.6091 12.5365L37.682 8.56019C38.0165 8.2406 38.1354 7.77243 37.9942 7.34135Z" fill="#0788FF"/>
</svg>
