<svg width="85" height="85" viewBox="0 0 85 85" fill="none" xmlns="http://www.w3.org/2000/svg">
<circle cx="42.5" cy="42.5" r="42.5" fill="#F9F5FF"/>
<path d="M42.9994 22C39.0909 21.9965 35.2671 23.1394 32.0016 25.2871C28.7361 27.4349 26.1721 30.4932 24.6272 34.0835C23.0823 37.6737 22.6242 41.6382 23.3098 45.4861C23.9953 49.3341 25.7943 52.8965 28.484 55.7323L27.6148 62H42.9994C48.3037 62 53.3908 59.8929 57.1415 56.1421C60.8923 52.3914 62.9994 47.3043 62.9994 42C62.9994 36.6957 60.8923 31.6086 57.1415 27.8579C53.3908 24.1071 48.3037 22 42.9994 22Z" fill="#CFB8F7"/>
<path d="M58.5887 29.488C54.9038 26.5234 50.287 24.9617 45.5591 25.0805C40.8311 25.1994 36.2986 26.9912 32.7674 30.1372C29.2361 33.2833 26.9351 37.5797 26.2733 42.2626C25.6116 46.9455 26.6321 51.7113 29.1533 55.7126L27.6149 62.0003H42.9995C46.7697 62.0026 50.4637 60.9386 53.655 58.931C56.8463 56.9233 59.4046 54.0541 61.0347 50.6544C62.6648 47.2548 63.3001 43.4634 62.8673 39.7181C62.4345 35.9728 60.9512 32.4263 58.5887 29.488Z" fill="#9660F1"/>
<path d="M41.461 37.3841V32.7687C41.461 31.5446 41.9473 30.3707 42.8128 29.5051C43.6784 28.6396 44.8523 28.1533 46.0764 28.1533C46.4844 28.1533 46.8757 28.3154 47.1643 28.6039C47.4528 28.8924 47.6149 29.2838 47.6149 29.6918V32.7687C47.6149 34.4008 48.2632 35.9661 49.4173 37.1201C50.5714 38.2742 52.1366 38.9226 53.7687 38.9226V49.6918H49.1533L47.4287 51.4164C47.0001 51.8452 46.4911 52.1853 45.931 52.4174C45.3708 52.6494 44.7704 52.7688 44.1641 52.7687H35.3072C34.4911 52.7687 33.7085 52.4445 33.1315 51.8675C32.5544 51.2905 32.2303 50.5078 32.2303 49.6918V40.461C32.2303 39.645 32.5544 38.8623 33.1315 38.2853C33.7085 37.7083 34.4911 37.3841 35.3072 37.3841H41.461Z" fill="#F9E9DC"/>
<path d="M47.4271 51.4166L49.1533 49.692H53.7687V38.9228C52.1366 38.9228 50.5713 38.2744 49.4173 37.1204C48.2632 35.9663 47.6148 34.401 47.6148 32.7689V31.2305C46.7988 31.2305 46.0162 31.5546 45.4391 32.1317C44.8621 32.7087 44.5379 33.4913 44.5379 34.3074V40.4612H36.8456C36.4376 40.4612 36.0463 40.6233 35.7577 40.9118C35.4692 41.2004 35.3071 41.5917 35.3071 41.9997V52.7689H44.1641C45.388 52.7687 46.5618 52.2822 47.4271 51.4166Z" fill="#F4D9C1"/>
</svg>
