<svg width="85" height="85" viewBox="0 0 85 85" fill="none" xmlns="http://www.w3.org/2000/svg">
<circle cx="42.5" cy="42.5" r="42.5" fill="#F3F9FF"/>
<path d="M53.812 42.4341L49.8803 44.5003C48.6985 45.1247 47.1972 45.0057 46.1195 44.2253C45.0195 43.4226 44.4769 42.0848 44.7073 40.7395L45.458 36.3619L42.2769 33.2626C41.2959 32.3112 40.954 30.9065 41.3702 29.6058C41.6378 28.7808 42.1952 28.1342 42.9013 27.7031H29.5676C27.598 27.7031 26 29.3011 26 31.2707V50.2976C26 52.2672 27.598 53.8652 29.5676 53.8652H30.7567V59.8111C30.7567 60.2942 31.0466 60.7253 31.4925 60.9111C31.6412 60.9705 31.7973 61.0003 31.9459 61.0003C32.2581 61.0003 32.5628 60.8813 32.7858 60.6509L39.5716 53.8652H55.7296C57.6992 53.8652 59.2971 52.2672 59.2971 50.2976V44.9017C58.7694 44.8868 58.2417 44.7605 57.7438 44.5078L53.812 42.4341Z" fill="#2196F3"/>
<path d="M63.9942 30.3414C63.853 29.9103 63.4814 29.5981 63.0354 29.5312L57.4017 28.7137L54.8821 23.6076C54.4807 22.7975 53.1503 22.7975 52.749 23.6076L50.2294 28.7136L44.5956 29.5311C44.1497 29.598 43.7781 29.9102 43.6369 30.3413C43.4957 30.7724 43.6146 31.2406 43.9342 31.5602L48.0071 35.5365L47.0483 41.148C46.974 41.5939 47.1524 42.0473 47.524 42.3074C47.7321 42.4561 47.9774 42.5378 48.2227 42.5378C48.4159 42.5378 48.6017 42.4932 48.7727 42.3966L53.8118 39.7507L58.851 42.3966C59.2523 42.6047 59.7354 42.575 60.0996 42.3074C60.4638 42.0399 60.6496 41.5939 60.5753 41.148L59.6091 35.5365L63.682 31.5602C64.0165 31.2406 64.1354 30.7724 63.9942 30.3414Z" fill="#0788FF"/>
</svg>
