<svg width="20" height="21" viewBox="0 0 20 21" fill="none" xmlns="http://www.w3.org/2000/svg">
<path fill-rule="evenodd" clip-rule="evenodd" d="M2 10.5C2 10.0858 2.33579 9.75 2.75 9.75L15.3401 9.75L13.2397 7.7996C12.9361 7.51775 12.9186 7.0432 13.2004 6.73966C13.4823 6.43613 13.9568 6.41856 14.2603 6.70041L17.7603 9.95041C17.9132 10.0923 18 10.2915 18 10.5C18 10.7086 17.9132 10.9077 17.7603 11.0496L14.2603 14.2996C13.9568 14.5815 13.4823 14.5639 13.2004 14.2603C12.9186 13.9568 12.9361 13.4823 13.2397 13.2004L15.3401 11.25L2.75 11.25C2.33579 11.25 2 10.9142 2 10.5Z" fill="white"/>
</svg>
