<svg xmlns="http://www.w3.org/2000/svg" width="24" height="28" viewBox="0 0 24 28" fill="none">
    <path d="M12.0002 0.328125C7.41278 0.328125 0.587945 1.12705 0.587945 3.32708V8.58211C0.587945 9.19669 0.941774 9.7178 1.51069 9.94159C1.54109 9.95362 1.57243 9.96477 1.60295 9.97642C0.929578 10.368 0.587945 10.8167 0.587945 11.3171V16.5724C0.587945 17.1736 0.950305 17.7049 1.50987 17.9252C1.52086 17.9294 1.53213 17.9335 1.54323 17.9377C0.909234 18.321 0.587891 18.7575 0.587891 19.2422V24.4975C0.587891 25.1123 0.941719 25.6331 1.51063 25.8569C4.47415 27.0275 8.19963 27.6721 12.0002 27.6721C15.8006 27.6721 19.5261 27.0275 22.489 25.8572C23.0586 25.633 23.4124 25.1123 23.4124 24.4974V19.2422C23.4124 18.7575 23.091 18.3209 22.457 17.9377C22.4675 17.9336 22.4786 17.9299 22.4891 17.9254C23.05 17.7048 23.4124 17.1735 23.4124 16.5723V11.317C23.4124 10.8166 23.0707 10.368 22.3974 9.97631C22.4277 9.96466 22.4591 9.95362 22.4891 9.9418C23.0586 9.71764 23.4124 9.19658 23.4124 8.582V3.32708C23.4124 1.12705 16.5875 0.328125 12.0002 0.328125ZM22.5333 24.4974C22.5333 24.7466 22.3964 24.9489 22.1668 25.0393C19.3033 26.1702 15.6929 26.793 12.0002 26.793C8.30747 26.793 4.69705 26.1702 1.83302 25.0391C1.60393 24.9489 1.4671 24.7465 1.4671 24.4974V20.4875C3.45702 21.7525 8.41263 22.241 12.0002 22.241C15.5877 22.241 20.5434 21.7524 22.5333 20.4875V24.4974ZM22.5333 19.2422C22.5333 19.9819 18.9157 21.3621 12.0002 21.3621C5.08457 21.3621 1.4671 19.9819 1.4671 19.2422C1.4671 19.0891 1.73119 18.7363 2.69347 18.3544C4.86894 19.0754 7.32501 19.5239 9.93234 19.6789C9.94224 19.6796 9.9517 19.6819 9.96193 19.6819H9.99059C10.6517 19.7199 11.3218 19.7403 12.0002 19.7403C12.6786 19.7403 13.3489 19.7199 14.01 19.6819H14.0385C14.0486 19.6819 14.058 19.6796 14.0679 19.6789C16.6755 19.5239 19.1319 19.0752 21.3071 18.3544C22.2692 18.7363 22.5333 19.0892 22.5333 19.2422ZM22.5333 16.5723C22.5333 16.8173 22.3963 17.0175 22.166 17.1081C19.8217 18.0391 16.959 18.6247 13.9502 18.8028H10.0505C7.04134 18.6247 4.17845 18.0391 1.83307 17.1077C1.60387 17.0175 1.46705 16.8173 1.46705 16.5723V12.5622C3.45696 13.8273 8.41258 14.3158 12.0002 14.3158C15.5877 14.3158 20.5433 13.8272 22.5333 12.5622L22.5333 16.5723ZM22.5333 11.3171C22.5333 12.0566 18.9157 13.437 12.0002 13.437C5.08457 13.437 1.4671 12.0567 1.4671 11.3171C1.4671 11.1183 1.81541 10.7625 2.77982 10.3946C5.5043 11.2765 8.72348 11.7565 12.0003 11.7565C15.2772 11.7565 18.4965 11.2765 21.2207 10.3946C22.1851 10.7626 22.5333 11.1184 22.5333 11.3171ZM22.5333 8.58211C22.5333 8.83105 22.3963 9.03377 22.1668 9.12423C19.3037 10.2548 15.6932 10.8777 12.0002 10.8777C8.30714 10.8777 4.69662 10.2548 1.83312 9.12401C1.60393 9.03377 1.4671 8.83105 1.4671 8.58211V4.5722C3.45702 5.83729 8.41263 6.32565 12.0002 6.32565C15.5877 6.32565 20.5434 5.83723 22.5333 4.5722V8.58211ZM12.0002 5.44677C5.18498 5.44677 1.4671 4.04649 1.4671 3.32708C1.4671 2.58732 5.08457 1.20712 12.0002 1.20712C18.9157 1.20712 22.5333 2.58727 22.5333 3.32708C22.5333 4.04644 18.8154 5.44677 12.0002 5.44677Z" fill="#208AAE" stroke="white" stroke-width="0.3"/>
</svg>