<svg viewBox="0 0 198 86" xmlns="http://www.w3.org/2000/svg"><circle cx="43" cy="43" fill="#fff" r="43"/><path d="m43 3c-22.09 0-40 17.91-40 40s17.91 40 40 40 40-17.91 40-40-17.91-40-40-40zm-3 67.5c-4.36-2.02-12.36-6.73-16.96-15.5-6.24-11.91-6.04-26-6.04-26l7.67-3.53c.41 13.13 2.63 20.43 5.46 25.82 2.53 4.84 6.57 8.11 9.87 10.14v9.08zm2.97-44.69-11.94 5.52c-.22-2.52-.37-5.37-.41-8.62l12.35-5.71 12.42 5.73c-.04 3.24-.19 6.1-.41 8.62l-12.01-5.53zm19.99 29.19c-4.6 8.78-12.61 13.48-16.96 15.5v-9.08c3.3-2.03 7.34-5.3 9.87-10.14 2.82-5.39 5.05-12.69 5.46-25.82l7.67 3.53s.2 14.09-6.04 26z" fill="#c4511c"/><g fill="#231b36"><path d="m118.81 43.16h-11.24l-2.71 8.22h-6.01l11.29-32.06h6.1l11.29 32.06h-6.01zm-5.64-18.29s-.72 3.16-1.35 4.97l-2.84 8.58h8.4l-2.84-8.58c-.59-1.81-1.26-4.97-1.26-4.97h-.09z"/><path d="m129.6 19.32h5.83v32.06h-5.83z"/><path d="m155.88 18.78c9.44 0 16.57 7.18 16.57 16.35s-7.14 16.8-16.57 16.8-16.57-7.36-16.57-16.8 7.14-16.35 16.57-16.35zm0 27.81c5.87 0 10.57-4.88 10.57-11.47s-4.7-11.02-10.57-11.02-10.57 4.7-10.57 11.02 4.7 11.47 10.57 11.47z"/><path d="m177.06 43.16s3.48 3.39 7.99 3.39c2.44 0 4.65-1.26 4.65-3.88 0-5.73-15.13-4.74-15.13-14.59 0-5.33 4.61-9.3 10.75-9.3s9.57 3.43 9.57 3.43l-2.53 4.74s-3.07-2.8-7.09-2.8c-2.71 0-4.83 1.58-4.83 3.84 0 5.69 15.08 4.29 15.08 14.54 0 5.1-3.88 9.39-10.57 9.39-7.13 0-11.06-4.38-11.06-4.38l3.16-4.38z"/><path d="m104.02 64.78h-2.9l-.7 2.12h-1.55l2.91-8.27h1.57l2.91 8.27h-1.55l-.7-2.12zm-1.45-4.72s-.19.82-.35 1.28l-.73 2.21h2.17l-.73-2.21c-.15-.47-.33-1.28-.33-1.28h-.02z"/><path d="m106.78 58.63h1.47v6.19c0 .65.22.82.61.82.12 0 .22-.01.22-.01v1.29s-.22.04-.47.04c-.81 0-1.83-.21-1.83-1.91z"/><path d="m109.85 58.63h1.47v6.19c0 .65.22.82.61.82.12 0 .22-.01.22-.01v1.29s-.22.04-.47.04c-.81 0-1.83-.21-1.83-1.91z"/><path d="m115.84 58.63h1.5v8.27h-1.5z"/><path d="m118.97 60.96h1.42v.69c0 .22-.02.41-.02.41h.02c.26-.5.91-1.23 2.11-1.23 1.32 0 2.06.69 2.06 2.26v3.82h-1.47v-3.52c0-.72-.19-1.21-.94-1.21s-1.37.5-1.6 1.21c-.08.24-.1.51-.1.79v2.72h-1.48z"/><path d="m132.4 58.49c2.43 0 4.27 1.85 4.27 4.22s-1.84 4.33-4.27 4.33-4.27-1.9-4.27-4.33 1.84-4.22 4.27-4.22zm0 7.17c1.51 0 2.72-1.26 2.72-2.96s-1.21-2.84-2.72-2.84-2.72 1.21-2.72 2.84 1.21 2.96 2.72 2.96z"/><path d="m137.73 60.96h1.42v.69c0 .22-.02.41-.02.41h.02c.26-.5.91-1.23 2.11-1.23 1.32 0 2.06.69 2.06 2.26v3.82h-1.47v-3.52c0-.72-.19-1.21-.94-1.21s-1.37.5-1.6 1.21c-.08.24-.1.51-.1.79v2.72h-1.48z"/><path d="m147.23 60.82c1.71 0 2.63 1.25 2.63 2.82 0 .17-.04.57-.04.57h-4.1c.09 1.04.9 1.57 1.78 1.57.95 0 1.71-.65 1.71-.65l.57 1.06s-.91.85-2.39.85c-1.97 0-3.19-1.42-3.19-3.11 0-1.83 1.25-3.11 3.02-3.11zm1.15 2.37c-.02-.8-.52-1.23-1.18-1.23-.76 0-1.28.47-1.42 1.23z"/><path d="m153.87 64.78s.9.87 2.06.87c.63 0 1.2-.33 1.2-1 0-1.48-3.9-1.22-3.9-3.76 0-1.37 1.19-2.4 2.77-2.4s2.47.89 2.47.89l-.65 1.22s-.79-.72-1.83-.72c-.7 0-1.25.41-1.25.99 0 1.47 3.89 1.11 3.89 3.75 0 1.32-1 2.42-2.72 2.42-1.84 0-2.85-1.13-2.85-1.13z"/><path d="m162.26 60.82c1.71 0 2.63 1.25 2.63 2.82 0 .17-.04.57-.04.57h-4.1c.09 1.04.9 1.57 1.78 1.57.95 0 1.71-.65 1.71-.65l.57 1.06s-.91.85-2.39.85c-1.97 0-3.19-1.42-3.19-3.11 0-1.83 1.25-3.11 3.02-3.11zm1.14 2.37c-.02-.8-.52-1.23-1.18-1.23-.76 0-1.28.47-1.42 1.23z"/><path d="m168.68 60.82c1.55 0 2.28.88 2.28.88l-.65 1.01s-.62-.64-1.55-.64c-1.09 0-1.8.83-1.8 1.84s.72 1.86 1.85 1.86c1 0 1.75-.76 1.75-.76l.57 1.05s-.85.97-2.44.97c-1.97 0-3.23-1.39-3.23-3.11s1.26-3.11 3.23-3.11z"/><path d="m171.91 60.96h1.48v3.52c0 .72.19 1.21.92 1.21 1.07 0 1.66-.94 1.66-2v-2.72h1.48v5.94h-1.42v-.68c0-.23.02-.42.02-.42h-.02c-.29.62-1.05 1.23-2.06 1.23-1.27 0-2.06-.64-2.06-2.26z"/><path d="m178.85 60.96h1.42v1.02c0 .22-.02.42-.02.42h.02c.27-.85.98-1.53 1.89-1.53.14 0 .27.02.27.02v1.46s-.15-.02-.35-.02c-.63 0-1.34.36-1.62 1.25-.09.29-.13.62-.13.97v2.35h-1.48z"/><path d="m183.19 58.63h1.47v1.32h-1.47zm0 2.33h1.48v5.94h-1.48z"/><path d="m186.33 62.23h-.77v-1.18h.8v-1.71h1.44v1.71h1.35v1.18h-1.35v2.31c0 .98.77 1.12 1.18 1.12.16 0 .27-.02.27-.02v1.29s-.17.04-.45.04c-.83 0-2.47-.24-2.47-2.24v-2.49z"/><path d="m189.91 67.85s.33.24.66.24c.41 0 .8-.24 1.02-.77l.22-.52-2.5-5.84h1.66l1.25 3.42c.12.31.22.8.22.8h.02s.09-.47.2-.78l1.16-3.45h1.62l-2.65 6.83c-.42 1.08-1.25 1.55-2.14 1.55-.71 0-1.23-.38-1.23-.38l.49-1.11z"/></g></svg>