<svg viewBox="0 0 512 86" xmlns="http://www.w3.org/2000/svg"><circle cx="43" cy="43" fill="#fff" r="43"/><path d="m43 3c-22.09 0-40 17.91-40 40s17.91 40 40 40 40-17.91 40-40-17.91-40-40-40zm0 16s2 0 2 0v-6l18 10-18 10v-6s-2 0-2 0c-8.84 0-16 7.16-16 16 0 3.6 1.19 6.92 3.19 9.59l-6.98 3.98c-2.65-3.86-4.21-8.54-4.21-13.57 0-13.25 10.75-24 24-24zm0 48s-2 0-2 0v6l-18-10 18-10v6h2c8.84 0 16-7.17 16-16 0-3.6-1.19-6.92-3.19-9.59l6.98-3.98c2.65 3.86 4.21 8.53 4.21 13.57 0 13.25-10.75 24-24 24z" fill="#c4511c"/><g fill="#0f2339"><path d="m101.07 27.32h19.19v5.01h-13.37v8.4h10.79v5.01h-10.79v8.63h14.09v5.01h-19.91z"/><path d="m135.79 44.93h.77v-.32c0-3.03-1.9-4.06-4.43-4.06-3.3 0-6.32 2.21-6.32 2.21l-2.17-4.11s3.57-2.84 9.03-2.84c6.05 0 9.57 3.34 9.57 9.17v14.41h-5.28v-1.9c0-.9.09-1.63.09-1.63h-.09s-1.76 4.06-7 4.06c-4.11 0-7.81-2.57-7.81-7.18 0-7.32 9.89-7.81 13.64-7.81zm-4.38 10.52c3.03 0 5.19-3.25 5.19-6.05v-.54h-.99c-2.94 0-7.68.41-7.68 3.61 0 1.54 1.13 2.98 3.48 2.98z"/><path d="m146.85 52.52s2.53 2.53 6.28 2.53c1.63 0 3.03-.72 3.03-2.08 0-3.43-11.2-2.98-11.2-10.39 0-4.29 3.84-6.77 8.81-6.77s7.72 2.62 7.72 2.62l-2.12 4.24s-2.12-1.99-5.64-1.99c-1.49 0-2.94.63-2.94 2.08 0 3.25 11.2 2.85 11.2 10.25 0 3.84-3.34 6.91-8.81 6.91-5.73 0-8.94-3.39-8.94-3.39l2.62-4.02z"/><path d="m163.33 63.08s1.26.95 2.57.95c1.58 0 3.12-.95 3.97-2.98l.86-2.03-9.71-22.67h6.46l4.83 13.28c.45 1.22.86 3.12.86 3.12h.09s.36-1.81.77-3.03l4.52-13.37h6.28l-10.3 26.51c-1.63 4.2-4.83 6.01-8.31 6.01-2.75 0-4.79-1.49-4.79-1.49l1.9-4.29z"/><path d="m186.77 27.5h4.47v20.59c0 4.88 3.16 7.72 8.04 7.72s8.13-2.85 8.13-7.81v-20.5h4.47v20.59c0 7.09-5.1 11.83-12.55 11.83s-12.55-4.74-12.55-11.83v-20.59z"/><path d="m216.26 36.53h4.02v1.94c0 .9-.09 1.67-.09 1.67h.09s1.94-4.15 7.68-4.15c6.14 0 10.03 4.88 10.03 11.97s-4.38 11.97-10.34 11.97c-5.01 0-7-3.75-7-3.75h-.09s.09.81.09 1.99v10.25h-4.38v-31.88zm10.7 19.65c3.61 0 6.59-2.98 6.59-8.17s-2.66-8.17-6.46-8.17c-3.43 0-6.59 2.39-6.59 8.22 0 4.06 2.26 8.13 6.46 8.13z"/><path d="m251.07 35.99c5.28 0 7.04 3.61 7.04 3.61h.09s-.09-.68-.09-1.54v-10.57h4.38v31.88h-4.15v-2.17c0-.9.05-1.54.05-1.54h-.09s-1.85 4.25-7.5 4.25c-6.19 0-10.07-4.88-10.07-11.97s4.29-11.97 10.34-11.97zm.59 20.14c3.39 0 6.59-2.39 6.59-8.22 0-4.06-2.12-8.13-6.46-8.13-3.61 0-6.59 2.98-6.59 8.17s2.66 8.17 6.46 8.17z"/><path d="m279.25 45.11h.99v-.41c0-3.75-2.12-5.01-5.01-5.01-3.52 0-6.37 2.21-6.37 2.21l-1.81-3.21s3.3-2.71 8.53-2.71c5.78 0 9.03 3.16 9.03 8.94v14.45h-4.06v-2.17c0-1.04.09-1.81.09-1.81h-.09s-1.85 4.52-7.32 4.52c-3.93 0-7.77-2.39-7.77-6.95 0-7.54 9.93-7.86 13.77-7.86zm-5.06 11.29c3.7 0 6.1-3.88 6.1-7.27v-.72h-1.13c-3.3 0-9.26.23-9.26 4.33 0 1.85 1.45 3.66 4.29 3.66z"/><path d="m289.95 40.37h-2.98v-3.52h3.12v-6.59h4.24v6.59h5.51v3.52h-5.51v10.16c0 4.56 3.21 5.15 4.88 5.15.63 0 1.04-.09 1.04-.09v3.88s-.63.09-1.54.09c-2.94 0-8.76-.9-8.76-8.53z"/><path d="m312.98 35.99c6.46 0 9.89 4.79 9.89 10.7 0 .59-.14 1.9-.14 1.9h-16.66c.23 5.01 3.79 7.54 7.86 7.54s6.77-2.66 6.77-2.66l1.81 3.21s-3.39 3.25-8.85 3.25c-7.18 0-12.1-5.19-12.1-11.97 0-7.27 4.92-11.97 11.42-11.97zm5.42 9.3c-.14-3.93-2.57-5.83-5.51-5.83-3.34 0-6.05 2.08-6.68 5.83z"/><path d="m326.44 53.47s2.57 2.66 6.55 2.66c1.9 0 3.79-.99 3.79-2.84 0-4.2-11.74-3.34-11.74-10.79 0-4.15 3.7-6.5 8.26-6.5 5.01 0 7.36 2.53 7.36 2.53l-1.76 3.3s-2.03-2.03-5.64-2.03c-1.9 0-3.75.81-3.75 2.8 0 4.11 11.74 3.21 11.74 10.7 0 3.79-3.25 6.64-8.26 6.64-5.6 0-8.67-3.34-8.67-3.34l2.12-3.12z"/><path d="m346.85 27.5h4.7l7.32 17.25c.72 1.76 1.58 4.29 1.58 4.29h.09s.86-2.53 1.58-4.29l7.32-17.25h4.7l2.57 31.88h-4.43l-1.58-20.1c-.14-1.94-.05-4.7-.05-4.7h-.09s-.95 2.94-1.72 4.7l-6.37 14.36h-3.97l-6.32-14.36c-.72-1.72-1.72-4.79-1.72-4.79h-.09s.05 2.85-.09 4.79l-1.54 20.1h-4.47l2.57-31.88z"/><path d="m393.36 45.11h.99v-.41c0-3.75-2.12-5.01-5.01-5.01-3.52 0-6.37 2.21-6.37 2.21l-1.81-3.21s3.3-2.71 8.53-2.71c5.78 0 9.03 3.16 9.03 8.94v14.45h-4.06v-2.17c0-1.04.09-1.81.09-1.81h-.09s-1.85 4.52-7.32 4.52c-3.93 0-7.77-2.39-7.77-6.95 0-7.54 9.93-7.86 13.77-7.86zm-5.06 11.29c3.7 0 6.1-3.88 6.1-7.27v-.72h-1.13c-3.3 0-9.26.23-9.26 4.33 0 1.85 1.45 3.66 4.29 3.66z"/><path d="m403.24 36.53h4.24v3.03c0 .9-.09 1.67-.09 1.67h.09c.9-1.99 3.61-5.24 8.58-5.24 5.37 0 7.86 2.94 7.86 8.76v14.63h-4.38v-13.64c0-3.21-.68-5.74-4.33-5.74s-6.28 2.3-7.23 5.6c-.27.9-.36 1.94-.36 3.07v10.7h-4.38v-22.85z"/><path d="m440.36 45.11h.99v-.41c0-3.75-2.12-5.01-5.01-5.01-3.52 0-6.37 2.21-6.37 2.21l-1.81-3.21s3.3-2.71 8.53-2.71c5.78 0 9.03 3.16 9.03 8.94v14.45h-4.06v-2.17c0-1.04.09-1.81.09-1.81h-.09s-1.85 4.52-7.32 4.52c-3.93 0-7.77-2.39-7.77-6.95 0-7.54 9.93-7.86 13.77-7.86zm-5.05 11.29c3.7 0 6.1-3.88 6.1-7.27v-.72h-1.13c-3.3 0-9.26.23-9.26 4.33 0 1.85 1.45 3.66 4.29 3.66z"/><path d="m458.56 65.07c3.97 0 7.23-1.76 7.23-6.41v-1.67c0-.72.05-1.45.05-1.45h-.09c-1.35 2.26-3.48 3.57-6.77 3.57-6.37 0-10.21-5.1-10.21-11.7s3.66-11.43 9.98-11.43c5.51 0 7.18 3.39 7.18 3.39h.09s-.05-.32-.05-.72v-2.12h4.2v21.9c0 7.54-5.73 10.43-11.52 10.43-2.75 0-5.6-.77-7.81-1.9l1.44-3.43s2.84 1.54 6.28 1.54zm7.32-17.61c0-5.96-2.89-7.68-6.46-7.68-3.97 0-6.23 2.89-6.23 7.54s2.53 7.99 6.64 7.99c3.16 0 6.05-1.9 6.05-7.86z"/><path d="m484.84 35.99c6.46 0 9.89 4.79 9.89 10.7 0 .59-.14 1.9-.14 1.9h-16.66c.23 5.01 3.79 7.54 7.86 7.54s6.77-2.66 6.77-2.66l1.81 3.21s-3.39 3.25-8.85 3.25c-7.18 0-12.1-5.19-12.1-11.97 0-7.27 4.92-11.97 11.42-11.97zm5.42 9.3c-.14-3.93-2.57-5.83-5.51-5.83-3.34 0-6.05 2.08-6.68 5.83z"/><path d="m498.03 36.53h4.24v3.97c0 .95-.09 1.72-.09 1.72h.09c1.04-3.34 3.7-5.96 7.23-5.96.59 0 1.13.09 1.13.09v4.34s-.59-.14-1.26-.14c-2.8 0-5.37 1.99-6.41 5.37-.41 1.31-.54 2.71-.54 4.11v9.35h-4.38v-22.85z"/></g></svg>