<svg viewBox="0 0 328 86" xmlns="http://www.w3.org/2000/svg"><circle cx="43" cy="43" fill="#fff" r="43"/><path d="m43 3c-4.93 0-9.64.9-14 2.52v37.47c0 10 6.27 16 14 16s14-6 14-16v-8s-6 0-6 0l10-18 10 18h-6.02l-.02 8c.03 14-9.83 23.97-21.97 23.97s-22-9.97-21.97-23.97c0 0 0-22.89 0-33.42-10.85 7.16-18.02 19.45-18.02 33.43 0 22.09 17.91 40 40 40s40-17.91 40-40-17.91-40-40-40z" fill="#c4511c"/><g fill="#1c252c"><path d="m100.61 27.32h5.83v20.55c0 4.29 2.8 6.73 7.09 6.73s7.13-2.44 7.13-6.77v-20.5h5.83v20.55c0 7.18-5.19 12.06-12.91 12.06s-12.96-4.88-12.96-12.06v-20.55z"/><path d="m130.19 36.35h5.24v1.67c0 .86-.09 1.58-.09 1.58h.09s1.99-3.79 7.41-3.79c6.23 0 10.21 4.92 10.21 12.06s-4.47 12.06-10.52 12.06c-4.56 0-6.59-3.16-6.59-3.16h-.09s.09.81.09 1.99v9.66h-5.74v-32.06zm11.29 18.74c3.16 0 5.78-2.57 5.78-7.13s-2.35-7.23-5.73-7.23c-2.98 0-5.78 2.17-5.78 7.27 0 3.57 1.94 7.09 5.74 7.09z"/><path d="m165.5 35.81c5.06 0 6.64 2.94 6.64 2.94h.09s-.05-.59-.05-1.31v-10.12h5.73v32.06h-5.42v-1.9c0-.86.09-1.49.09-1.49h-.09s-1.94 3.93-7.23 3.93c-6.23 0-10.21-4.92-10.21-12.06s4.33-12.06 10.43-12.06zm1.09 19.28c2.98 0 5.78-2.17 5.78-7.27 0-3.57-1.9-7.09-5.74-7.09-3.16 0-5.78 2.57-5.78 7.14s2.35 7.23 5.73 7.23z"/><path d="m182.21 36.35h5.51v3.97c0 .86-.09 1.63-.09 1.63h.09c1.04-3.3 3.79-5.92 7.32-5.92.54 0 1.04.09 1.04.09v5.64s-.59-.09-1.35-.09c-2.44 0-5.19 1.4-6.28 4.83-.36 1.13-.5 2.39-.5 3.75v9.12h-5.73v-23.03z"/><path d="m209.62 44.93h.77v-.32c0-3.03-1.9-4.06-4.43-4.06-3.3 0-6.32 2.21-6.32 2.21l-2.17-4.11s3.57-2.84 9.03-2.84c6.05 0 9.57 3.34 9.57 9.17v14.41h-5.28v-1.9c0-.9.09-1.63.09-1.63h-.09s-1.76 4.06-7 4.06c-4.11 0-7.81-2.57-7.81-7.18 0-7.32 9.89-7.81 13.64-7.81zm-4.38 10.52c3.03 0 5.19-3.25 5.19-6.05v-.54h-.99c-2.94 0-7.68.41-7.68 3.61 0 1.54 1.13 2.98 3.48 2.98z"/><path d="m221.04 41.27h-2.84v-4.56h2.84v-1.04c0-7.54 6.19-8.53 9.39-8.53 1.17 0 1.94.14 1.94.14v4.88s-.5-.09-1.17-.09c-1.63 0-4.43.41-4.43 3.75v.9h4.92v4.56h-4.92v18.11h-5.73v-18.11z"/><path d="m234.5 41.27h-2.98v-4.56h3.12v-6.64h5.6v6.64h5.24v4.56h-5.24v8.94c0 3.79 2.98 4.33 4.56 4.33.63 0 1.04-.09 1.04-.09v5.01s-.68.14-1.76.14c-3.21 0-9.57-.95-9.57-8.67v-9.66z"/><path d="m249.67 27.5h11.65c5.83 0 10.02 3.93 10.02 9.98s-4.2 10.11-10.02 10.11h-7.18v11.79h-4.47zm10.93 16.21c3.84 0 6.19-2.39 6.19-6.23s-2.35-6.1-6.14-6.1h-6.5v12.33h6.46z"/><path d="m273.87 27.5h4.38v24.88c0 2.75 1.08 3.25 2.44 3.25.41 0 .77-.05.77-.05v3.88s-.68.09-1.45.09c-2.48 0-6.14-.68-6.14-6.41v-25.65z"/><path d="m283.76 36.53h4.38v13.64c0 3.16.63 5.69 4.29 5.69 4.65 0 7.41-4.11 7.41-8.63v-10.7h4.38v22.85h-4.25v-3.03c0-.95.09-1.67.09-1.67h-.09c-.95 2.26-3.93 5.24-8.4 5.24-5.15 0-7.81-2.71-7.81-8.76z"/><path d="m309.32 53.47s2.57 2.66 6.55 2.66c1.9 0 3.79-.99 3.79-2.84 0-4.2-11.74-3.34-11.74-10.79 0-4.15 3.7-6.5 8.26-6.5 5.01 0 7.36 2.53 7.36 2.53l-1.76 3.3s-2.03-2.03-5.64-2.03c-1.9 0-3.75.81-3.75 2.8 0 4.11 11.74 3.21 11.74 10.7 0 3.79-3.25 6.64-8.26 6.64-5.6 0-8.67-3.34-8.67-3.34l2.12-3.12z"/></g></svg>