<svg viewBox="0 0 388 86" xmlns="http://www.w3.org/2000/svg"><circle cx="43" cy="43" fill="#fff" r="43"/><g fill="#1c252c"><path d="m100.61 27.32h5.83v20.55c0 4.29 2.8 6.73 7.09 6.73s7.13-2.44 7.13-6.77v-20.5h5.83v20.55c0 7.18-5.19 12.06-12.91 12.06s-12.96-4.88-12.96-12.06v-20.55z"/><path d="m130.19 36.35h5.24v1.67c0 .86-.09 1.58-.09 1.58h.09s1.99-3.79 7.41-3.79c6.23 0 10.21 4.92 10.21 12.06s-4.47 12.06-10.52 12.06c-4.56 0-6.59-3.16-6.59-3.16h-.09s.09.81.09 1.99v9.66h-5.73v-32.06zm11.29 18.74c3.16 0 5.78-2.57 5.78-7.14s-2.35-7.23-5.73-7.23c-2.98 0-5.78 2.17-5.78 7.27 0 3.57 1.94 7.09 5.73 7.09z"/><path d="m165.5 35.81c5.06 0 6.64 2.94 6.64 2.94h.09s-.05-.59-.05-1.31v-10.12h5.73v32.06h-5.42v-1.9c0-.86.09-1.49.09-1.49h-.09s-1.94 3.93-7.23 3.93c-6.23 0-10.21-4.92-10.21-12.06s4.34-12.06 10.43-12.06zm1.09 19.28c2.98 0 5.78-2.17 5.78-7.27 0-3.57-1.9-7.09-5.73-7.09-3.16 0-5.78 2.57-5.78 7.13s2.35 7.23 5.74 7.23z"/><path d="m182.21 36.35h5.51v3.97c0 .86-.09 1.63-.09 1.63h.09c1.04-3.3 3.79-5.92 7.32-5.92.54 0 1.04.09 1.04.09v5.64s-.59-.09-1.35-.09c-2.44 0-5.19 1.4-6.28 4.83-.36 1.13-.5 2.39-.5 3.75v9.12h-5.73v-23.03z"/><path d="m209.62 44.93h.77v-.32c0-3.03-1.9-4.06-4.43-4.06-3.3 0-6.32 2.21-6.32 2.21l-2.17-4.11s3.57-2.84 9.03-2.84c6.05 0 9.57 3.34 9.57 9.17v14.41h-5.28v-1.9c0-.9.09-1.63.09-1.63h-.09s-1.76 4.06-7 4.06c-4.11 0-7.81-2.57-7.81-7.18 0-7.32 9.89-7.81 13.64-7.81zm-4.38 10.52c3.03 0 5.19-3.25 5.19-6.05v-.54h-.99c-2.94 0-7.68.41-7.68 3.61 0 1.54 1.13 2.98 3.48 2.98z"/><path d="m221.04 41.27h-2.84v-4.56h2.84v-1.04c0-7.54 6.19-8.53 9.39-8.53 1.17 0 1.94.14 1.94.14v4.88s-.5-.09-1.17-.09c-1.63 0-4.43.41-4.43 3.75v.9h4.92v4.56h-4.92v18.11h-5.73v-18.11z"/><path d="m234.5 41.27h-2.98v-4.56h3.12v-6.64h5.6v6.64h5.24v4.56h-5.24v8.94c0 3.79 2.98 4.34 4.56 4.34.63 0 1.04-.09 1.04-.09v5.01s-.68.14-1.76.14c-3.21 0-9.57-.95-9.57-8.67v-9.66z"/><path d="m263.71 26.96c7.68 0 11.61 4.2 11.61 4.2l-2.21 3.34s-3.7-3.48-9.21-3.48c-7.13 0-11.79 5.42-11.79 12.19s4.74 12.6 11.83 12.6c6.01 0 9.84-4.15 9.84-4.15l2.39 3.21s-4.38 5.06-12.37 5.06c-9.57 0-16.3-7.32-16.3-16.66s6.95-16.3 16.21-16.3z"/><path d="m289.18 35.99c6.46 0 9.89 4.79 9.89 10.7 0 .59-.14 1.9-.14 1.9h-16.66c.23 5.01 3.79 7.54 7.86 7.54s6.77-2.66 6.77-2.66l1.81 3.21s-3.39 3.25-8.85 3.25c-7.18 0-12.1-5.19-12.1-11.97 0-7.27 4.92-11.97 11.42-11.97zm5.42 9.3c-.14-3.93-2.57-5.83-5.51-5.83-3.34 0-6.05 2.08-6.68 5.83z"/><path d="m302.37 36.53h4.24v3.03c0 .9-.09 1.67-.09 1.67h.09c.9-1.99 3.61-5.24 8.58-5.24 5.37 0 7.86 2.94 7.86 8.76v14.63h-4.38v-13.64c0-3.21-.68-5.73-4.33-5.73s-6.28 2.3-7.23 5.6c-.27.9-.36 1.94-.36 3.07v10.7h-4.38z"/><path d="m328.51 40.37h-2.98v-3.52h3.12v-6.59h4.24v6.59h5.51v3.52h-5.51v10.16c0 4.56 3.21 5.15 4.88 5.15.63 0 1.04-.09 1.04-.09v3.88s-.63.09-1.54.09c-2.94 0-8.76-.9-8.76-8.53z"/><path d="m341.69 36.53h4.24v3.97c0 .95-.09 1.72-.09 1.72h.09c1.04-3.34 3.7-5.96 7.23-5.96.59 0 1.13.09 1.13.09v4.34s-.59-.14-1.26-.14c-2.8 0-5.37 1.99-6.41 5.37-.41 1.31-.54 2.71-.54 4.11v9.35h-4.38v-22.85z"/><path d="m368.52 45.11h.99v-.41c0-3.75-2.12-5.01-5.01-5.01-3.52 0-6.37 2.21-6.37 2.21l-1.81-3.21s3.3-2.71 8.53-2.71c5.78 0 9.03 3.16 9.03 8.94v14.45h-4.06v-2.17c0-1.04.09-1.81.09-1.81h-.09s-1.85 4.52-7.32 4.52c-3.93 0-7.77-2.39-7.77-6.95 0-7.54 9.93-7.86 13.77-7.86zm-5.06 11.29c3.7 0 6.1-3.88 6.1-7.27v-.72h-1.13c-3.3 0-9.26.23-9.26 4.34 0 1.85 1.45 3.66 4.29 3.66z"/><path d="m378.14 27.5h4.38v24.88c0 2.75 1.08 3.25 2.44 3.25.41 0 .77-.04.77-.04v3.88s-.68.09-1.45.09c-2.48 0-6.14-.68-6.14-6.41z"/></g><path d="m43 3c-18.53 0-34.11 12.6-38.65 29.7 10.2-.45 19.95 5.68 23.61 15.77 3.01 8.29 12.2 12.58 20.51 9.56 2.27-.83 4.24-2.12 5.84-3.72l5.65 5.65c-2.4 2.41-5.35 4.35-8.76 5.59-12.46 4.53-26.18-1.88-30.76-14.34-2.65-7.23-10.02-11.45-17.38-10.36-.04.71-.06 1.43-.06 2.15 0 22.09 17.91 40 40 40s40-17.91 40-40-17.91-40-40-40zm11.32 28.68c-4.26-4.25-10.76-5.91-16.78-3.72-4.46 1.62-7.76 5.03-9.39 9.12-1.66-1.92-3.57-3.64-5.7-5.11-.18-.13-.37-.24-.55-.37 2.69-5 7.16-9.07 12.91-11.16 9.05-3.29 18.77-.8 25.17 5.59l-5.65 5.65z" fill="#c4511c"/></svg>