<svg viewBox="0 0 348 86" xmlns="http://www.w3.org/2000/svg"><circle cx="43" cy="43" fill="#fff" r="43"/><path d="m58.04 37.53c-3.01-8.29-12.2-12.59-20.51-9.56-4.46 1.62-7.76 5.03-9.39 9.12-1.66-1.92-3.57-3.64-5.7-5.11-.18-.13-.37-.24-.55-.37 2.69-5 7.16-9.07 12.91-11.16 12.46-4.53 26.18 1.88 30.76 14.34 2.66 7.23 10.02 11.45 17.38 10.36.04-.71.06-1.43.06-2.15 0-22.09-17.91-40-40-40-18.53 0-34.11 12.6-38.65 29.7 10.2-.45 19.95 5.68 23.61 15.77 3.01 8.29 12.2 12.59 20.51 9.56 4.46-1.62 7.76-5.03 9.39-9.12 1.66 1.92 3.57 3.64 5.7 5.11.18.13.37.24.55.37-2.69 5-7.16 9.07-12.91 11.16-12.46 4.53-26.18-1.88-30.76-14.34-2.65-7.23-10.02-11.45-17.38-10.36-.04.71-.06 1.43-.06 2.15 0 22.09 17.91 40 40 40 18.53 0 34.11-12.6 38.65-29.7-10.2.45-19.95-5.68-23.61-15.77z" fill="#c4511c"/><g fill="#212121"><path d="m127.89 49.49c.5 1.85.54 3.39.59 3.39h.09s.14-1.58.54-3.39l5.28-22.17h6.01l-8.26 32.06h-6.73l-4.92-18.97c-.54-2.08-.81-4.2-.81-4.2h-.09s-.27 2.12-.81 4.2l-4.92 18.97h-6.73l-8.04-32.06h6.01l5.06 22.17c.41 1.81.54 3.39.54 3.39h.09s.09-1.54.59-3.39l5.78-22.17h5.06l5.69 22.17z"/><path d="m143.56 27.32h12.37c6.01 0 10.21 4.2 10.21 10.43s-4.2 10.57-10.21 10.57h-6.55v11.06h-5.83v-32.06zm11.29 15.94c3.39 0 5.37-2.17 5.37-5.51s-1.99-5.42-5.28-5.42h-5.55v10.93z"/><path d="m184.65 26.96c9.21 0 16.35 7.09 16.35 16.26s-7.13 16.71-16.35 16.71-16.39-7.32-16.39-16.71 7.18-16.26 16.39-16.26zm0 28.85c6.5 0 11.74-5.42 11.74-12.6s-5.24-12.19-11.74-12.19-11.79 5.24-11.79 12.19 5.28 12.6 11.79 12.6z"/><path d="m204.56 36.53h4.02v1.94c0 .9-.09 1.67-.09 1.67h.09s1.94-4.15 7.68-4.15c6.14 0 10.03 4.88 10.03 11.97s-4.38 11.97-10.34 11.97c-5.01 0-7-3.75-7-3.75h-.09s.09.81.09 1.99v10.25h-4.38v-31.88zm10.7 19.65c3.61 0 6.59-2.98 6.59-8.17s-2.66-8.17-6.46-8.17c-3.43 0-6.59 2.39-6.59 8.22 0 4.06 2.26 8.13 6.46 8.13z"/><path d="m230.57 40.37h-2.98v-3.52h3.12v-6.59h4.24v6.59h5.51v3.52h-5.51v10.16c0 4.56 3.21 5.15 4.88 5.15.63 0 1.04-.09 1.04-.09v3.88s-.63.09-1.54.09c-2.94 0-8.76-.9-8.76-8.53z"/><path d="m243.71 27.5h4.43v4.47h-4.43zm.04 9.03h4.38v22.85h-4.38z"/><path d="m252.97 36.53h4.24v3.03c0 .9-.09 1.67-.09 1.67h.09c1.08-2.66 4.29-5.24 7.86-5.24 3.84 0 6.1 1.76 6.86 5.19h.09c1.26-2.75 4.43-5.19 8.13-5.19 5.15 0 7.54 2.94 7.54 8.76v14.63h-4.38v-13.68c0-3.21-.63-5.73-4.06-5.73-3.21 0-5.6 2.71-6.41 5.83-.23.95-.32 1.99-.32 3.16v10.43h-4.38v-13.68c0-2.98-.45-5.73-3.97-5.73-3.34 0-5.69 2.75-6.55 6.01-.23.9-.27 1.94-.27 2.98v10.43h-4.38v-22.85z"/><path d="m292.16 27.5h4.43v4.47h-4.43zm.05 9.03h4.38v22.85h-4.38z"/><path d="m299.75 56.85 11.52-14.45c.99-1.22 1.9-2.12 1.9-2.12v-.09s-.72.09-2.21.09h-10.7v-3.75h18.83v2.53l-11.51 14.5c-.95 1.17-1.94 2.08-1.94 2.08v.09s.77-.09 2.26-.09h11.61v3.75h-19.73v-2.53z"/><path d="m332.39 35.99c6.46 0 9.89 4.79 9.89 10.7 0 .59-.14 1.9-.14 1.9h-16.66c.23 5.01 3.79 7.54 7.86 7.54s6.77-2.66 6.77-2.66l1.81 3.21s-3.39 3.25-8.85 3.25c-7.18 0-12.1-5.19-12.1-11.97 0-7.27 4.92-11.97 11.42-11.97zm5.42 9.3c-.14-3.93-2.57-5.83-5.51-5.83-3.34 0-6.05 2.08-6.68 5.83z"/></g></svg>