<svg viewBox="0 0 444 86" xmlns="http://www.w3.org/2000/svg"><circle cx="43" cy="43" fill="#fff" r="43"/><g fill="#1c1f2a"><path d="m100.07 27.32h5.83v32.06h-5.83z"/><path d="m111.08 36.35h5.51v2.66c0 .86-.09 1.58-.09 1.58h.09c.99-1.94 3.52-4.79 8.17-4.79 5.1 0 7.99 2.66 7.99 8.76v14.81h-5.69v-13.64c0-2.8-.72-4.7-3.66-4.7s-5.33 1.94-6.19 4.7c-.32.95-.41 1.99-.41 3.07v10.57h-5.74v-23.03z"/><path d="m137.73 41.27h-2.98v-4.56h3.12v-6.64h5.6v6.64h5.24v4.56h-5.24v8.94c0 3.79 2.98 4.34 4.56 4.34.63 0 1.04-.09 1.04-.09v5.01s-.68.14-1.76.14c-3.21 0-9.57-.95-9.57-8.67v-9.66z"/><path d="m161.79 35.81c6.64 0 10.21 4.83 10.21 10.93 0 .68-.14 2.21-.14 2.21h-15.9c.36 4.02 3.48 6.1 6.91 6.1 3.7 0 6.64-2.53 6.64-2.53l2.21 4.11s-3.52 3.3-9.26 3.3c-7.63 0-12.37-5.51-12.37-12.06 0-7.09 4.83-12.06 11.7-12.06zm4.43 9.21c-.09-3.12-2.03-4.79-4.56-4.79-2.94 0-4.97 1.81-5.51 4.79z"/><path d="m174.71 36.35h5.51v3.97c0 .86-.09 1.63-.09 1.63h.09c1.04-3.3 3.79-5.92 7.32-5.92.54 0 1.04.09 1.04.09v5.64s-.59-.09-1.35-.09c-2.44 0-5.19 1.4-6.28 4.83-.36 1.13-.5 2.39-.5 3.75v9.12h-5.73v-23.03z"/><path d="m190.42 36.35h5.51v2.66c0 .86-.09 1.58-.09 1.58h.09c.99-1.94 3.52-4.79 8.17-4.79 5.1 0 7.99 2.66 7.99 8.76v14.81h-5.69v-13.64c0-2.8-.72-4.7-3.66-4.7s-5.33 1.94-6.19 4.7c-.32.95-.41 1.99-.41 3.07v10.57h-5.73v-23.03z"/><path d="m227.76 44.93h.77v-.32c0-3.03-1.9-4.06-4.43-4.06-3.3 0-6.32 2.21-6.32 2.21l-2.17-4.11s3.57-2.84 9.03-2.84c6.05 0 9.57 3.34 9.57 9.17v14.41h-5.28v-1.9c0-.9.09-1.63.09-1.63h-.09s-1.76 4.06-7 4.06c-4.11 0-7.81-2.57-7.81-7.18 0-7.32 9.89-7.81 13.64-7.81zm-4.38 10.52c3.03 0 5.19-3.25 5.19-6.05v-.54h-.99c-2.94 0-7.68.41-7.68 3.61 0 1.54 1.13 2.98 3.48 2.98z"/><path d="m237.83 27.32h5.69v24.02c0 2.53.86 3.16 2.35 3.16.45 0 .86-.05.86-.05v5.01s-.86.14-1.81.14c-3.16 0-7.09-.81-7.09-7.41v-24.88z"/><path d="m250.12 27.5h4.47v28h14.27v3.88h-18.74z"/><path d="m271.02 27.5h4.43v4.47h-4.43zm.05 9.03h4.38v22.85h-4.38z"/><path d="m280.28 36.53h4.24v3.03c0 .9-.09 1.67-.09 1.67h.09c.9-1.99 3.61-5.24 8.58-5.24 5.37 0 7.86 2.94 7.86 8.76v14.63h-4.38v-13.64c0-3.21-.68-5.74-4.33-5.74s-6.28 2.3-7.23 5.6c-.27.9-.36 1.94-.36 3.07v10.7h-4.38v-22.85z"/><path d="m305.48 27.5h4.38v17.43h3.21l6.23-8.4h4.97l-7.59 10.07v.09l8.44 12.69h-5.1l-6.86-10.75h-3.3v10.75h-4.38z"/><path d="m324.98 48.63h4.43v1.35c0 4.33 2.53 5.83 5.06 5.83s4.97-1.45 4.97-5.64v-18.79h-8.04v-3.88h12.51v22.71c0 6.91-4.83 9.71-9.48 9.71s-9.44-2.84-9.44-9.71v-1.58z"/><path d="m348.96 36.53h4.38v13.64c0 3.16.63 5.69 4.29 5.69 4.65 0 7.41-4.11 7.41-8.63v-10.7h4.38v22.85h-4.24v-3.03c0-.95.09-1.67.09-1.67h-.09c-.95 2.26-3.93 5.24-8.4 5.24-5.15 0-7.81-2.71-7.81-8.76v-14.63z"/><path d="m374.2 27.5h4.43v4.47h-4.43zm.05 9.03h4.38v22.85h-4.38z"/><path d="m394.07 35.99c5.74 0 8.58 3.34 8.58 3.34l-2.08 3.07s-2.44-2.62-6.32-2.62c-4.61 0-7.95 3.43-7.95 8.13s3.34 8.22 8.08 8.22c4.24 0 7.04-3.07 7.04-3.07l1.76 3.21s-3.16 3.66-9.12 3.66c-7.18 0-12.24-5.1-12.24-11.97s5.06-11.97 12.24-11.97z"/><path d="m415.97 35.99c6.46 0 9.89 4.79 9.89 10.7 0 .59-.14 1.9-.14 1.9h-16.66c.23 5.01 3.79 7.54 7.86 7.54s6.77-2.66 6.77-2.66l1.81 3.21s-3.39 3.25-8.85 3.25c-7.18 0-12.1-5.19-12.1-11.97 0-7.27 4.92-11.97 11.42-11.97zm5.42 9.3c-.14-3.93-2.57-5.83-5.51-5.83-3.34 0-6.05 2.08-6.68 5.83z"/><path d="m429.15 36.53h4.24v3.97c0 .95-.09 1.72-.09 1.72h.09c1.04-3.34 3.7-5.96 7.23-5.96.59 0 1.13.09 1.13.09v4.34s-.59-.14-1.26-.14c-2.8 0-5.37 1.99-6.41 5.37-.41 1.31-.54 2.71-.54 4.11v9.35h-4.38v-22.85z"/></g><path d="m81.64 32.65-12.77 12.77c.32-3.43-.05-6.91-1.09-10.23l10.68-10.68c-3.79-7.25-9.72-13.18-16.97-16.97l-25.57 25.57c-6.36 6.36-6.1 13.7-1.41 18.38 1.55 1.55 3.41 2.58 5.38 3.1l-6.15 6.15c-1.76-.92-3.41-2.12-4.89-3.59-7.81-7.81-8.48-19.8.71-28.99 0 0 23.71-23.71 23.79-23.79-3.3-.88-6.77-1.36-10.35-1.36-22.09-.01-40 17.9-40 39.99 0 3.58.48 7.05 1.36 10.35l12.76-12.76c-.32 3.43.05 6.91 1.09 10.23l-10.68 10.68c3.79 7.25 9.72 13.18 16.97 16.97.12-.12 15.67-15.67 15.67-15.67l9.9-9.9c6.36-6.36 6.1-13.7 1.41-18.38-1.55-1.55-3.41-2.58-5.38-3.1l6.14-6.14c1.76.92 3.41 2.11 4.89 3.59 7.81 7.81 8.49 19.8-.71 28.99l-23.79 23.79c3.3.88 6.77 1.36 10.35 1.36 22.09 0 40-17.91 40-40 0-3.58-.48-7.05-1.36-10.36z" fill="#c4511c"/></svg>