<svg xmlns="http://www.w3.org/2000/svg" width="612" height="792"><radialGradient id="a" cx="298.388" cy="337.905" r="431.127" gradientTransform="matrix(1 0 0 .9484 0 40.849)" gradientUnits="userSpaceOnUse"><stop offset="0" stop-color="#faf291"/><stop offset="1" stop-color="#faf291" stop-opacity="0"/></radialGradient><path fill="url(#a)" d="M-.722 792l305.111-637.542L609.499 792z"/><path fill="#37474F" stroke="#000" stroke-miterlimit="10" d="M294.94 0h18.896v133.48H294.94z"/><circle fill="#FCB316" cx="304.388" cy="303.5" r="92.5"/><path fill="#546E7A" stroke="#000" stroke-miterlimit="10" d="M310.202 337.244c64.967-.259 126.397-4.859 181.155-12.864L313.839 133.457v.023h-18.898v-.021L117.419 324.38c54.758 8.005 116.19 12.605 181.157 12.864.881.002 1.76.005 2.642.006 1.057.002 2.112.006 3.171.006 1.056 0 2.108-.003 3.161-.006.886 0 1.768-.004 2.652-.006z"/></svg>