<svg xmlns="http://www.w3.org/2000/svg" xmlns:xlink="http://www.w3.org/1999/xlink" width="331.633" height="265.914"><path fill="#197491" stroke="#000" stroke-width="1.9999" stroke-miterlimit="10" d="M252.161 95.286l7.791 10.498-52.555 39.001-7.791-10.498z"/><path fill="#197491" stroke="#000" stroke-width="2" stroke-miterlimit="10" d="M143.471 58.765a28.362 28.362 0 0 0-5.443 16.745c0 15.74 12.76 28.5 28.5 28.5s28.5-12.76 28.5-28.5c0-6.26-2.023-12.045-5.443-16.745h-46.114z"/><path fill="#197491" stroke="#000" stroke-width="2.00006" stroke-miterlimit="10" d="M111.662 118.824l-4.855 12.137L62.6 113.28l4.855-12.138z"/><path fill="#197491" stroke="#000" stroke-width="2" stroke-miterlimit="10" d="M202.262 53.774c-.611-1.812-1.344-3-3-3h-65.469c-1.656 0-2.482 1.314-3 3l-8.654 38.666c0 1.656 1.344 3 3 3h82.777c1.656 0 3-1.344 3-3l-8.654-38.666zM219.277 101.713h-26.939c-5.541 8.402-15.057 13.951-25.875 13.951-10.816 0-20.333-5.549-25.873-13.951h-27.632a3 3 0 0 0-3 3l7.345 95.544a3 3 0 0 0 3 3h91.513a3 3 0 0 0 3-3l7.462-95.544a3 3 0 0 0-3.001-3zM160.222 260.914a5 5 0 0 1-5 5h-40.393a5 5 0 0 1-5-5v-6.68a5 5 0 0 1 5-5l40.393-7.178a5 5 0 0 1 5 5v13.858zM223.226 260.914a5 5 0 0 1-5 5h-40.393a5 5 0 0 1-5-5v-13.857a5 5 0 0 1 5-5l40.393 6.928a5 5 0 0 1 5 5v6.929z"/><path fill="#197491" stroke="#000" stroke-width="2.00008" stroke-miterlimit="10" d="M141.233 227.34l13.049-.794 1.001 16.468-13.048.793z"/><path fill="#197491" stroke="#000" stroke-width="2.00004" stroke-miterlimit="10" d="M183.629 224.726l12.927 1.944-2.454 16.316-12.927-1.944zM110.017 135.58l-2.842 12.76-49.628-11.054 2.841-12.76z"/><path fill="#197491" stroke="#000" stroke-width="1.99996" stroke-miterlimit="10" d="M68.615 105.239l-12.936 1.86-8.292-57.674 12.937-1.86z"/><path fill="#197491" stroke="#000" stroke-width="2.00002" stroke-miterlimit="10" d="M61.699 127.054l-10.21 8.16-33.515-41.937 10.21-8.16z"/><path fill="#197491" stroke="#000" stroke-width="2.00004" stroke-miterlimit="10" d="M270.796 125.237l2.841 12.757-49.628 11.054-2.842-12.758zM143.675 204.314l12.927 1.944-2.454 16.316-12.927-1.944z"/><path fill="#197491" stroke="#000" stroke-width="2.00008" stroke-miterlimit="10" d="M181.863 205.601l13.048-.793 1.002 16.467-13.049.794zM211.01 105.29l-.287-13.066 49.34-1.086.288 13.067z"/><path fill="#197491" stroke="#000" stroke-width="2.00002" stroke-miterlimit="10" d="M303.03 85.828l10.21 8.16-33.514 41.936-10.21-8.16z"/><path fill="none" stroke="#000" stroke-miterlimit="10" d="M141.792 58.623v36.674M191.258 58.765V95.44"/><path d="M163.048 94.254c-3.162 0-6.214-1.216-8.592-3.424a1.145 1.145 0 0 1-.061-1.617 1.145 1.145 0 0 1 1.617-.06c1.954 1.813 4.452 2.813 7.035 2.813 4.299 0 8.211-2.74 9.733-6.819a1.143 1.143 0 0 1 2.144.8c-1.854 4.969-6.627 8.307-11.876 8.307z"/><circle fill="#5BBFD6" stroke="#000" stroke-width="2" stroke-miterlimit="10" cx="149.527" cy="245.187" r="8.298"/><circle fill="#5BBFD6" stroke="#000" stroke-width="2" stroke-miterlimit="10" cx="187.386" cy="245.187" r="8.298"/><circle fill="#5BBFD6" stroke="#000" stroke-width="2" stroke-miterlimit="10" cx="63.027" cy="106.095" r="8.298"/><circle fill="#5BBFD6" stroke="#000" stroke-width="2" stroke-miterlimit="10" cx="56.925" cy="130.908" r="8.298"/><path fill="#5BBFD6" d="M109.438 132.34a2.595 2.595 0 0 1-2.6-2.384l-1.093-12.506c-.062-.694.152-1.372.601-1.906a2.592 2.592 0 0 1 2.002-.931 2.594 2.594 0 0 1 2.598 2.384l1.093 12.504c.062.694-.152 1.372-.6 1.906a2.596 2.596 0 0 1-2.001.933z"/><path d="M108.348 115.613a1.61 1.61 0 0 1 1.602 1.471l1.093 12.504a1.61 1.61 0 1 1-3.209.281l-1.093-12.506a1.608 1.608 0 0 1 1.607-1.75m.001-2a3.577 3.577 0 0 0-2.768 1.288 3.584 3.584 0 0 0-.832 2.638l1.093 12.505a3.588 3.588 0 0 0 3.908 3.283 3.597 3.597 0 0 0 2.456-1.277c.62-.739.915-1.676.83-2.637l-1.093-12.503a3.59 3.59 0 0 0-3.594-3.297z"/><path fill="#5BBFD6" d="M110.542 150.672a2.595 2.595 0 0 1-2.6-2.384l-1.093-12.505c-.062-.694.152-1.372.601-1.906a2.592 2.592 0 0 1 2.002-.931 2.594 2.594 0 0 1 2.598 2.384l1.093 12.503a2.592 2.592 0 0 1-.6 1.906 2.6 2.6 0 0 1-2.001.933z"/><path d="M109.452 133.945a1.61 1.61 0 0 1 1.602 1.471l1.093 12.503a1.61 1.61 0 1 1-3.209.281l-1.093-12.505a1.608 1.608 0 0 1 1.607-1.75m0-2a3.577 3.577 0 0 0-2.767 1.288 3.584 3.584 0 0 0-.832 2.638l1.093 12.504a3.589 3.589 0 0 0 3.908 3.283 3.59 3.59 0 0 0 2.455-1.276c.62-.739.915-1.676.83-2.638l-1.093-12.502a3.589 3.589 0 0 0-3.594-3.297z"/><path fill="#5BBFD6" d="M223.377 131.659a2.594 2.594 0 0 1-2.002-.931 2.595 2.595 0 0 1-.601-1.907l1.093-12.505a2.596 2.596 0 0 1 2.828-2.374 2.614 2.614 0 0 1 2.374 2.83l-1.093 12.503a2.628 2.628 0 0 1-2.599 2.384z"/><path d="M224.467 114.932a1.611 1.611 0 0 1 1.605 1.752l-1.093 12.504a1.61 1.61 0 0 1-1.745 1.465 1.608 1.608 0 0 1-1.465-1.744l1.093-12.506a1.612 1.612 0 0 1 1.605-1.471m0-2a3.59 3.59 0 0 0-3.597 3.297l-1.093 12.505c-.085.961.21 1.898.831 2.637a3.588 3.588 0 0 0 2.768 1.288 3.633 3.633 0 0 0 3.594-3.298l1.093-12.503a3.615 3.615 0 0 0-3.596-3.926z"/><path fill="#5BBFD6" d="M221.77 150.488a2.596 2.596 0 0 1-2-.933 2.598 2.598 0 0 1-.601-1.907l1.093-12.504a2.628 2.628 0 0 1 2.828-2.374 2.614 2.614 0 0 1 2.374 2.83l-1.093 12.504a2.63 2.63 0 0 1-2.601 2.384z"/><path d="M222.863 133.76a1.611 1.611 0 0 1 1.604 1.752l-1.093 12.505a1.613 1.613 0 0 1-1.744 1.465 1.61 1.61 0 0 1-1.465-1.746l1.093-12.505a1.612 1.612 0 0 1 1.605-1.471m0-2a3.59 3.59 0 0 0-3.598 3.297l-1.093 12.505c-.085.96.21 1.896.83 2.636a3.59 3.59 0 0 0 2.766 1.29 3.635 3.635 0 0 0 3.597-3.297l1.093-12.505a3.615 3.615 0 0 0-3.595-3.926z"/><path fill="#5BBFD6" d="M143.25 208.447a2.617 2.617 0 0 1-2.611-2.599 2.614 2.614 0 0 1 2.6-2.622l12.552-.055a2.622 2.622 0 0 1 2.624 2.602 2.589 2.589 0 0 1-.757 1.847 2.591 2.591 0 0 1-1.843.772l-12.565.055z"/><path d="M155.803 204.172a1.61 1.61 0 0 1 .008 3.22l-12.553.055h-.007a1.612 1.612 0 0 1-.007-3.221l12.552-.055a.017.017 0 0 0 .007.001m0-2h-.015l-12.552.055a3.617 3.617 0 0 0-3.596 3.626 3.618 3.618 0 0 0 3.611 3.595l12.569-.055a3.592 3.592 0 0 0 2.548-1.067 3.58 3.58 0 0 0 1.047-2.557 3.62 3.62 0 0 0-3.612-3.597z"/><path fill="#5BBFD6" d="M181.699 208.447a2.616 2.616 0 0 1-2.611-2.599 2.614 2.614 0 0 1 2.601-2.622l12.552-.055a2.62 2.62 0 0 1 2.623 2.602 2.589 2.589 0 0 1-.757 1.847 2.592 2.592 0 0 1-1.844.772l-12.564.055z"/><path d="M194.251 204.172a1.61 1.61 0 0 1 .008 3.22l-12.553.055h-.007a1.611 1.611 0 0 1-.007-3.221l12.552-.055a.017.017 0 0 0 .007.001m0-2h-.016l-12.552.055a3.617 3.617 0 0 0-3.596 3.626 3.619 3.619 0 0 0 3.611 3.595l12.568-.055a3.596 3.596 0 0 0 2.549-1.067 3.588 3.588 0 0 0 1.047-2.557 3.618 3.618 0 0 0-3.611-3.597z"/><circle fill="#5BBFD6" stroke="#000" stroke-width="2" stroke-miterlimit="10" cx="148.242" cy="222.839" r="8.298"/><circle fill="#5BBFD6" stroke="#000" stroke-width="2" stroke-miterlimit="10" cx="189.68" cy="221.735" r="8.298"/><circle fill="#5BBFD6" stroke="#000" stroke-width="2" stroke-miterlimit="10" cx="274.272" cy="131.615" r="8.298"/><path fill="#5BBFD6" stroke="#000" stroke-width="2" stroke-miterlimit="10" d="M321.399 67.171l3.238 2.295-11.475 16.193-3.238-2.295z"/><path fill="#5BBFD6" stroke="#000" stroke-width="2.00002" stroke-miterlimit="10" d="M329.149 73.654l2.47 3.104-15.527 12.359-2.47-3.104z"/><path fill="#5BBFD6" stroke="#000" stroke-width="1.99998" stroke-miterlimit="10" d="M311.615 63l3.821 1.077-5.39 19.098-3.82-1.078z"/><path fill="#5BBFD6" stroke="#000" stroke-width="2.00006" stroke-miterlimit="10" d="M306.243 85.171l-3.467 1.932-7.727-13.868 3.468-1.932z"/><circle fill="#5BBFD6" stroke="#000" stroke-width="2" stroke-miterlimit="10" cx="309.814" cy="87.437" r="8.712"/><path fill="#5BBFD6" stroke="#000" stroke-width="2" stroke-miterlimit="10" d="M51.35 21.246h3.969v19.846H51.35zM50.756 41.095l-3.812 1.101-5.509-19.066 3.812-1.101z"/><path fill="#5BBFD6" stroke="#000" stroke-width="1.99992" stroke-miterlimit="10" d="M59.06 42.197l-3.739-1.33 6.652-18.695 3.738 1.33zM71.58 37.853l1.709 3.583-14.33 6.836-1.708-3.582z"/><circle fill="#5BBFD6" stroke="#000" stroke-width="2" stroke-miterlimit="10" cx="54.604" cy="45.195" r="8.713"/><path fill="#5BBFD6" stroke="#000" stroke-width="2.00002" stroke-miterlimit="10" d="M21.718 83.494l-3.239 2.297L7 69.603l3.238-2.297zM17.994 86.141l-2.47 3.104-15.53-12.361 2.471-3.104z"/><path fill="#5BBFD6" stroke="#000" stroke-width="2.00006" stroke-miterlimit="10" d="M25.405 82.232l-3.82 1.08-5.4-19.096 3.82-1.08z"/><path fill="#5BBFD6" stroke="#000" stroke-width="1.99992" stroke-miterlimit="10" d="M33.106 71.45l3.467 1.933-7.733 13.865-3.467-1.934z"/><circle fill="#5BBFD6" stroke="#000" stroke-width="2" stroke-miterlimit="10" cx="21.818" cy="87.572" r="8.712"/><circle fill="none" stroke="#000" stroke-miterlimit="10" cx="139.143" cy="79.19" r="1.114"/><circle fill="none" stroke="#000" stroke-miterlimit="10" cx="139.143" cy="85.075" r="1.114"/><circle fill="none" stroke="#000" stroke-miterlimit="10" cx="139.143" cy="90.444" r="1.114"/><circle fill="none" stroke="#000" stroke-miterlimit="10" cx="193.911" cy="80.561" r="1.114"/><circle fill="#5BBFD6" stroke="#000" stroke-width="2" stroke-miterlimit="10" cx="149.527" cy="70.168" r="14.502"/><circle fill="#FFF" stroke="#000" stroke-miterlimit="10" cx="149.527" cy="71.17" r="10.384"/><circle stroke="#000" stroke-miterlimit="10" cx="145.523" cy="71.667" r="4.834"/><circle fill="#FFF" cx="145.012" cy="70.259" r="1.49"/><circle fill="#FFF" stroke="#000" stroke-miterlimit="10" cx="183.172" cy="71.843" r="18.417"/><circle stroke="#000" stroke-miterlimit="10" cx="175.804" cy="71.832" r="6.992"/><circle fill="#FFF" cx="174.499" cy="69.795" r="2.156"/><circle fill="none" stroke="#000" stroke-miterlimit="10" cx="193.911" cy="86.448" r="1.114"/><circle fill="none" stroke="#000" stroke-miterlimit="10" cx="193.911" cy="91.817" r="1.114"/><path fill="none" stroke="#000" stroke-miterlimit="10" d="M111.667 127.766h109.479M131.564 127.719l6.903 75.019M200.633 127.719l-5.197 75.156"/><g fill="none" stroke="#000" stroke-miterlimit="10"><circle cx="128.625" cy="132.302" r="1.115"/><circle cx="130.481" cy="152.484" r="1.114"/><circle cx="129.553" cy="142.394" r="1.115"/><circle cx="131.556" cy="164.159" r="1.114"/><circle cx="133.413" cy="184.343" r="1.114"/><circle cx="132.484" cy="174.251" r="1.114"/><circle cx="134.398" cy="195.047" r="1.115"/></g><g fill="none" stroke="#000" stroke-miterlimit="10"><circle cx="203.213" cy="131.573" r="1.114"/><circle cx="201.815" cy="151.792" r="1.114"/><circle cx="202.514" cy="141.683" r="1.114"/><circle cx="201.006" cy="163.489" r="1.114"/><circle cx="199.608" cy="183.709" r="1.114"/><circle cx="200.308" cy="173.599" r="1.114"/><circle cx="198.867" cy="194.433" r="1.114"/></g><circle fill="none" stroke="#000" stroke-miterlimit="10" cx="175.793" cy="124.679" r="1.114"/><circle fill="none" stroke="#000" stroke-miterlimit="10" cx="155.523" cy="124.679" r="1.114"/><circle fill="none" stroke="#000" stroke-miterlimit="10" cx="165.658" cy="124.679" r="1.114"/><circle fill="none" stroke="#000" stroke-miterlimit="10" cx="143.8" cy="124.679" r="1.114"/><circle fill="none" stroke="#000" stroke-miterlimit="10" cx="219.531" cy="124.679" r="1.114"/><circle fill="none" stroke="#000" stroke-miterlimit="10" cx="199.262" cy="124.679" r="1.114"/><circle fill="none" stroke="#000" stroke-miterlimit="10" cx="209.396" cy="124.679" r="1.114"/><circle fill="none" stroke="#000" stroke-miterlimit="10" cx="187.538" cy="124.679" r="1.114"/><circle fill="none" stroke="#000" stroke-miterlimit="10" cx="123.531" cy="124.679" r="1.114"/><circle fill="none" stroke="#000" stroke-miterlimit="10" cx="133.665" cy="124.679" r="1.114"/><circle fill="none" stroke="#000" stroke-miterlimit="10" cx="112.781" cy="124.679" r="1.114"/><path fill="none" stroke="#000" stroke-miterlimit="10" d="M144.755 242.975a6.255 6.255 0 0 0 6.258 6.26M182.613 242.975a6.255 6.255 0 0 0 6.258 6.26M67.8 103.883a6.255 6.255 0 0 1-6.258 6.26M61.697 128.696a6.255 6.255 0 0 1-6.258 6.26M143.47 220.627a6.255 6.255 0 0 0 6.258 6.26M184.907 219.523a6.255 6.255 0 0 0 6.258 6.26"/><g stroke="#000" stroke-miterlimit="10"><circle fill="#5BBFD6" stroke-width="2" cx="257.675" cy="98.505" r="8.298"/><path fill="none" d="M252.902 96.293a6.255 6.255 0 0 0 6.258 6.26"/></g><path fill="none" stroke="#000" stroke-miterlimit="10" d="M269.5 129.403a6.255 6.255 0 0 0 6.258 6.26M304.414 86.28a6.568 6.568 0 0 0 7.861 4.957"/><g><path fill="#FFF" d="M142.515 136.432h47.112v14.246h-47.112z"/><path fill="#231F20" d="M190.722 151.637h-49.207v-16.259h49.207v16.259zm-47.207-2h45.207v-12.26h-45.207v12.26z"/><path fill="#231F20" d="M163.734 151.5l-1.753-7.428h-6.012l-2.352 4.885-3.797-4.885h-7.305v-1.129h7.856l3.019 3.881 1.868-3.881h7.619l.845 3.578 2.344-10.187 2.148 7.703h7.063l1.12 2.272 1.88-6.85 2.491 7.318.503-2.74h8.451v1.131h-7.51l-1.117 6.076-2.703-7.935-1.692 6.164-2.125-4.305h-7.22l-1.183-4.252z"/></g><g><circle fill="none" stroke="#000" stroke-width="2" stroke-miterlimit="10" cx="179.405" cy="167.952" r="8.298"/><defs><circle id="e" cx="179.405" cy="167.952" r="8.298"/></defs><clipPath id="f"><use xlink:href="#e" overflow="visible"/></clipPath><g clip-path="url(#f)" fill="none" stroke="#000" stroke-miterlimit="10"><path d="M170.396 164.539h18.02M170.396 167.33h18.02M170.396 170.119h18.02M170.396 172.91h18.02M170.396 161.748h18.02M170.396 175.701h18.02M182.986 158.941v18.02M180.195 158.941v18.02M177.406 158.941v18.02M174.615 158.941v18.02M185.777 158.941v18.02M171.824 158.941v18.02"/></g><g><circle fill="none" stroke="#000" stroke-width="2" stroke-miterlimit="10" cx="152.829" cy="167.952" r="8.298"/><defs><circle id="g" cx="152.829" cy="167.952" r="8.298"/></defs><clipPath id="h"><use xlink:href="#g" overflow="visible"/></clipPath><g clip-path="url(#h)" fill="none" stroke="#000" stroke-miterlimit="10"><path d="M143.82 164.539h18.02M143.82 167.33h18.02M143.82 170.119h18.02M143.82 172.91h18.02M143.82 161.748h18.02M143.82 175.701h18.02M156.41 158.941v18.02M153.619 158.941v18.02M150.83 158.941v18.02M148.039 158.941v18.02M159.201 158.941v18.02M145.248 158.941v18.02"/></g></g></g><circle cx="142.514" cy="184.344" r="2.971"/><circle cx="166.071" cy="184.344" r="2.971"/><circle cx="189.721" cy="184.344" r="2.971"/><circle cx="153.879" cy="190.285" r="2.971"/><circle cx="177.436" cy="190.285" r="2.971"/><path fill="none" stroke="#000" stroke-miterlimit="10" d="M59.615 42.873a6.566 6.566 0 0 1-6.572 6.572M27.219 86.415a6.569 6.569 0 0 1-7.861 4.957"/><g><path fill="#5BBFD6" stroke="#000" stroke-width="1.99994" stroke-miterlimit="10" d="M214.893 100.903l-1.709 3.585-14.33-6.834 1.709-3.584z"/><circle fill="#5BBFD6" stroke="#000" stroke-width="2" stroke-miterlimit="10" cx="217.532" cy="101.414" r="8.712"/><path fill="none" stroke="#000" stroke-miterlimit="10" d="M212.521 99.091a6.566 6.566 0 0 0 6.571 6.572"/><path opacity=".22" fill="#5BBFD6" d="M173.16 62.075c2.038-2.236 4.981-2.874 6.577-1.423 1.595 1.453 1.234 4.447-.805 6.686-2.039 2.241-4.987 2.881-6.582 1.428-1.596-1.453-1.233-4.447.805-6.687h-.001c-6.215 6.827-5.718 17.4 1.106 23.613 6.828 6.216 17.399 5.72 23.614-1.107 6.216-6.828 5.722-17.399-1.106-23.615-6.822-6.211-17.391-5.719-23.608 1.105z"/><path d="M194.977 87.129l5.98-6.567 4.058 3.696-5.98 6.567z"/><path fill="#6D6E71" stroke="#000" stroke-width="2" stroke-miterlimit="10" d="M183.392 94.173a22.196 22.196 0 0 1-14.971-5.796c-9.067-8.254-9.728-22.35-1.471-31.419a22.295 22.295 0 0 1 16.455-7.27 22.184 22.184 0 0 1 14.965 5.794c4.395 4 6.967 9.472 7.246 15.407a22.106 22.106 0 0 1-5.773 16.017 22.294 22.294 0 0 1-16.451 7.267zm.013-38.485a16.291 16.291 0 0 0-12.02 5.309c-6.028 6.624-5.546 16.916 1.074 22.944 3 2.729 6.881 4.233 10.932 4.233 4.564 0 8.943-1.935 12.014-5.308a16.139 16.139 0 0 0 4.217-11.697 16.136 16.136 0 0 0-5.291-11.251 16.196 16.196 0 0 0-10.926-4.23z"/><path fill="#D1D3D4" d="M210.744 90.971l-4.452 4.891-6.844-6.23 4.452-4.89z"/><path d="M203.923 85.447l6.104 5.557-3.779 4.152-6.104-5.558 3.779-4.151m-.067-1.413l-.673.739-3.779 4.151-.674.74.74.673 6.104 5.558.739.673.673-.739 3.779-4.152.674-.74-.74-.673-6.104-5.557-.739-.673z"/><g fill="none" stroke="#A7A9AC" stroke-miterlimit="10"><path d="M200.354 89.366l5.539 5.042M201.213 88.424l5.537 5.042M202.07 87.482l5.537 5.042M202.927 86.541l5.539 5.041M203.785 85.599l5.537 5.041"/></g><path fill="#ED1C24" stroke="#000" stroke-width="2.00008" stroke-miterlimit="10" d="M205.032 95.35l5.083-5.585 27.297 24.843-5.083 5.585z"/><path fill="none" stroke="#D1D3D4" stroke-miterlimit="10" d="M183.403 91.058c-10.563 0-19.129-8.563-19.129-19.127"/><path fill="#5BBFD6" stroke="#000" stroke-width="2" stroke-miterlimit="10" d="M215.786 91.858h3.969v16.535h-3.969zM224.156 90.939l-3.811.919 5.514 15.885 3.812-.92zM215.786 92.049l-3.739-1.11-6.653 15.578 3.739 1.108z"/></g><g><path fill="#754C29" d="M165.976 47.068h8.681v8.682h-8.681z"/><path fill="#3C2415" d="M174.656 47.068h8.683v8.682h-8.683z"/><path fill="#754C29" d="M183.339 47.068h8.684v8.682h-8.684z"/><path fill="#3C2415" d="M192.021 47.071h2.465v8.679h-2.465z"/><path fill="#754C29" d="M137.461 47.071h2.465v8.679h-2.465z"/><path fill="#3C2415" d="M139.928 47.068h8.682v8.682h-8.682z"/><path fill="#754C29" d="M148.61 47.068h8.682v8.682h-8.682z"/><path fill="#3C2415" d="M157.292 47.068h8.684v8.682h-8.684z"/><path fill="#A97C50" stroke="#000" stroke-width="2" stroke-miterlimit="10" d="M159.164 7.312h13.622V5.655A5.656 5.656 0 0 0 167.129 0h-2.31a5.655 5.655 0 0 0-5.655 5.655v1.657z"/><path fill="#754C29" stroke="#000" stroke-width="2" stroke-miterlimit="10" d="M125.512 57.452V36.74c0-18.272 14.812-33.084 33.084-33.084h7.379v47.801l-40.463 5.995z"/><path d="M137.226 57.456h-1.533V36.744c0-.714.022-1.459.066-2.28a37.449 37.449 0 0 1 2.45-11.337c.32-.818.673-1.636 1.051-2.436.304-.645.646-1.312 1.021-1.981a33.552 33.552 0 0 1 5.072-6.9 32.84 32.84 0 0 1 1.744-1.687 30.775 30.775 0 0 1 2-1.63 28.3 28.3 0 0 1 6.921-3.833 26.521 26.521 0 0 1 8.588-1.756h.061l.059-.002.398-.007c.119-.008.29-.008.451-.008v1.534c-.131.001-.275 0-.409.007l-.303.001a24.96 24.96 0 0 0-8.297 1.663 26.754 26.754 0 0 0-6.551 3.629c-.621.462-1.24.967-1.896 1.545a31.142 31.142 0 0 0-1.659 1.604 32.102 32.102 0 0 0-4.841 6.586 31.212 31.212 0 0 0-.972 1.887c-.364.77-.703 1.555-1.008 2.338a35.67 35.67 0 0 0-1.765 6.167 36.575 36.575 0 0 0-.583 4.704 40.07 40.07 0 0 0-.065 2.191v20.713z"/><path fill="#754C29" stroke="#000" stroke-width="2" stroke-miterlimit="10" d="M206.438 57.452V36.74c0-18.272-14.812-33.084-33.083-33.084h-7.379v47.801l40.462 5.995z"/><path d="M196.254 57.456h-1.531V36.744a36.412 36.412 0 0 0-.658-6.893 34.81 34.81 0 0 0-1.758-6.171 35.977 35.977 0 0 0-1.007-2.333 30.122 30.122 0 0 0-.972-1.889 32.087 32.087 0 0 0-4.84-6.587 28.935 28.935 0 0 0-3.554-3.149 26.926 26.926 0 0 0-6.55-3.629 25 25 0 0 0-8.3-1.664h-.261a7.27 7.27 0 0 0-.449-.008V2.888c.16 0 .328 0 .489.009l.31-.001.049.007c.029.003.057.001.092.001 2.98.108 5.87.699 8.618 1.758a28.464 28.464 0 0 1 6.92 3.833 31.317 31.317 0 0 1 1.998 1.631 32.026 32.026 0 0 1 1.746 1.685 33.57 33.57 0 0 1 5.07 6.901c.374.668.717 1.335 1.02 1.982.378.797.731 1.616 1.05 2.431a36.511 36.511 0 0 1 1.835 6.441 37.698 37.698 0 0 1 .682 7.179v20.711z"/><path fill="#754C29" d="M165.976 29.703h8.681v8.683h-8.681z"/><path fill="#A97C50" d="M165.976 38.386h8.681v8.683h-8.681z"/><path fill="#3C2415" d="M174.656 29.703h8.683v8.683h-8.683z"/><path fill="#754C29" d="M174.656 38.386h8.683v8.683h-8.683zM183.339 29.703h8.684v8.683h-8.684z"/><path fill="#A97C50" d="M183.339 38.386h8.684v8.683h-8.684z"/><path fill="#3C2415" d="M194.486 36.744v1.641h-2.465v-8.678h1.795a36.924 36.924 0 0 1 .67 7.037z"/><path fill="#754C29" d="M192.021 38.384h2.465v8.687h-2.465zM139.926 29.706v8.678h-2.465v-1.641a37.268 37.268 0 0 1 .661-7.037h1.804z"/><path fill="#A97C50" d="M137.461 38.384h2.465v8.687h-2.465z"/><path fill="#3C2415" d="M139.928 29.703h8.682v8.683h-8.682z"/><path fill="#754C29" d="M139.928 38.386h8.682v8.683h-8.682zM148.61 29.703h8.682v8.683h-8.682z"/><path fill="#A97C50" d="M148.61 38.386h8.682v8.683h-8.682z"/><path fill="#3C2415" d="M157.292 29.703h8.684v8.683h-8.684z"/><path fill="#754C29" d="M157.292 38.386h8.684v8.683h-8.684z"/><path fill="#A97C50" d="M174.655 5.377v6.964h-8.678V3.655h.596c-.146 0-.301 0-.449.008.066.009.123.009.188.009 2.907.105 5.715.693 8.343 1.705z"/><path fill="#754C29" d="M165.976 12.339h8.681v8.682h-8.681z"/><path fill="#A97C50" d="M165.976 21.021h8.681v8.683h-8.681z"/><path fill="#754C29" d="M183.343 10.7v1.641h-8.688V5.377a27.607 27.607 0 0 1 6.735 3.731 29.673 29.673 0 0 1 1.953 1.592z"/><path fill="#3C2415" d="M174.656 12.339h8.683v8.682h-8.683z"/><path fill="#754C29" d="M174.656 21.021h8.683v8.683h-8.683z"/><path fill="#A97C50" d="M185.041 12.341h-1.698V10.7c.58.523 1.151 1.07 1.698 1.641z"/><path fill="#754C29" d="M190.991 21.02h-7.648v-8.678h1.698a32.818 32.818 0 0 1 4.955 6.744c.351.627.687 1.272.995 1.934z"/><path fill="#A97C50" d="M192.021 23.404v6.302h-8.679V21.02h7.648c.369.775.713 1.567 1.031 2.384z"/><path fill="#754C29" d="M193.816 29.706h-1.795v-6.302a35.652 35.652 0 0 1 1.795 6.302z"/><path fill="#A97C50" d="M139.926 23.404v6.302h-1.805a36.453 36.453 0 0 1 1.805-6.302z"/><path fill="#754C29" d="M148.612 10.692v1.649h-1.706a33.188 33.188 0 0 1 1.706-1.649z"/><path fill="#3C2415" d="M148.612 12.341v8.678h-7.658c.311-.661.645-1.306.997-1.935a32.739 32.739 0 0 1 4.956-6.744h1.705z"/><path fill="#754C29" d="M148.612 21.02v8.687h-8.686v-6.302c.318-.817.661-1.608 1.028-2.384h7.658z"/><path fill="#A97C50" d="M157.291 5.377v6.964h-8.679v-1.649a29.84 29.84 0 0 1 1.943-1.584 27.554 27.554 0 0 1 6.736-3.731z"/><path fill="#754C29" d="M148.61 12.339h8.682v8.682h-8.682z"/><path fill="#A97C50" d="M148.61 21.021h8.682v8.683h-8.682z"/><path fill="#754C29" d="M165.978 3.655v8.687h-8.687V5.377a25.784 25.784 0 0 1 8.344-1.706c.065 0 .123 0 .188-.009-.148-.008-.303-.008-.449-.008h.604z"/><path fill="#3C2415" d="M157.292 12.339h8.684v8.682h-8.684z"/><path fill="#754C29" d="M157.292 21.021h8.684v8.683h-8.684z"/><path fill="#3C2415" stroke="#000" stroke-width="2" stroke-miterlimit="10" d="M188.709 46.097l-8.131-1.787a68.1 68.1 0 0 0-29.205 0l-8.131 1.787a20.526 20.526 0 0 0-13.917 10.791l20.977 3.779a88.373 88.373 0 0 0 31.347 0l20.977-3.779a20.526 20.526 0 0 0-13.917-10.791z"/></g></svg>