<svg xmlns="http://www.w3.org/2000/svg" width="224.54" height="137.009"><path fill="#197491" stroke="#000" stroke-width="2.00006" stroke-miterlimit="10" d="M70.23 122.999l-4.855 12.137-44.206-17.682 4.855-12.138z"/><path fill="#197491" stroke="#000" stroke-width="2" stroke-miterlimit="10" d="M218.524 109.972l-7.791-10.499-35.39 26.262 7.144 9.1z"/><path fill="#197491" stroke="#000" stroke-width="2" stroke-miterlimit="10" d="M178.648 137.003l2.195-28.114a3 3 0 0 0-3-3h-26.939c-5.541 8.402-15.057 13.951-25.875 13.951-10.816 0-20.333-5.549-25.873-13.951H71.524a3 3 0 0 0-3 3l2.161 28.114"/><path fill="#197491" stroke="#000" stroke-width="2" stroke-miterlimit="10" d="M102.037 62.941a28.362 28.362 0 0 0-5.443 16.745c0 15.74 12.76 28.5 28.5 28.5s28.5-12.76 28.5-28.5c0-6.26-2.023-12.045-5.443-16.745h-46.114z"/><path fill="#197491" stroke="#000" stroke-width="2" stroke-miterlimit="10" d="M160.828 57.95c-.611-1.812-1.344-3-3-3H92.359c-1.656 0-2.482 1.314-3 3l-8.654 38.666c0 1.656 1.344 3 3 3h82.777c1.656 0 3-1.344 3-3l-8.654-38.666z"/><path fill="#197491" stroke="#000" stroke-width="1.99996" stroke-miterlimit="10" d="M27.18 109.413l-12.937 1.86-8.291-57.674 12.936-1.86z"/><path fill="#197491" stroke="#000" stroke-width="2.00008" stroke-miterlimit="10" d="M169.575 109.468l-.287-13.067 49.34-1.086.288 13.067z"/><path fill="none" stroke="#000" stroke-miterlimit="10" d="M100.358 62.798v36.675M149.824 62.941v36.675"/><path d="M121.614 98.43c-3.162 0-6.214-1.216-8.592-3.424a1.145 1.145 0 0 1-.061-1.617 1.145 1.145 0 0 1 1.617-.06c1.954 1.813 4.452 2.813 7.035 2.813 4.299 0 8.211-2.74 9.733-6.819a1.143 1.143 0 0 1 2.144.8c-1.853 4.969-6.627 8.307-11.876 8.307z"/><circle fill="#5BBFD6" stroke="#000" stroke-width="2" stroke-miterlimit="10" cx="21.594" cy="110.271" r="8.298"/><path fill="#5BBFD6" d="M68.004 136.516a2.595 2.595 0 0 1-2.6-2.384l-1.093-12.506c-.062-.694.152-1.372.601-1.906a2.592 2.592 0 0 1 2.002-.931 2.594 2.594 0 0 1 2.598 2.384l1.093 12.504c.062.694-.152 1.372-.6 1.906a2.596 2.596 0 0 1-2.001.933z"/><path d="M66.915 119.789a1.61 1.61 0 0 1 1.602 1.471l1.093 12.504a1.61 1.61 0 1 1-3.209.281l-1.093-12.506a1.608 1.608 0 0 1 1.607-1.75m0-2a3.577 3.577 0 0 0-2.768 1.288 3.584 3.584 0 0 0-.832 2.638l1.093 12.505a3.588 3.588 0 0 0 3.908 3.283 3.597 3.597 0 0 0 2.456-1.277c.62-.739.915-1.676.83-2.637l-1.093-12.503a3.589 3.589 0 0 0-3.594-3.297z"/><path fill="#5BBFD6" d="M181.943 135.835a2.594 2.594 0 0 1-2.002-.931 2.595 2.595 0 0 1-.601-1.907l1.093-12.505a2.596 2.596 0 0 1 2.828-2.374 2.614 2.614 0 0 1 2.374 2.83l-1.093 12.503a2.627 2.627 0 0 1-2.599 2.384z"/><path d="M183.033 119.108a1.611 1.611 0 0 1 1.605 1.752l-1.093 12.504a1.61 1.61 0 0 1-1.745 1.465 1.608 1.608 0 0 1-1.465-1.744l1.093-12.506a1.612 1.612 0 0 1 1.605-1.471m0-2a3.59 3.59 0 0 0-3.597 3.297l-1.093 12.505c-.085.961.21 1.898.831 2.637a3.588 3.588 0 0 0 2.768 1.288 3.633 3.633 0 0 0 3.594-3.298l1.093-12.503a3.615 3.615 0 0 0-3.596-3.926z"/><path fill="#5BBFD6" stroke="#000" stroke-width="2" stroke-miterlimit="10" d="M9.916 25.421h3.969v19.846H9.916zM9.322 45.27L5.51 46.373.001 27.306l3.812-1.101z"/><path fill="#5BBFD6" stroke="#000" stroke-width="1.99992" stroke-miterlimit="10" d="M17.625 46.372l-3.738-1.33 6.651-18.695 3.738 1.33zM30.146 42.032l1.71 3.582-14.33 6.836-1.709-3.582z"/><circle fill="#5BBFD6" stroke="#000" stroke-width="2" stroke-miterlimit="10" cx="13.17" cy="49.371" r="8.713"/><circle fill="none" stroke="#000" stroke-miterlimit="10" cx="97.709" cy="83.366" r="1.114"/><circle fill="none" stroke="#000" stroke-miterlimit="10" cx="97.709" cy="89.25" r="1.114"/><circle fill="none" stroke="#000" stroke-miterlimit="10" cx="97.709" cy="94.62" r="1.114"/><circle fill="none" stroke="#000" stroke-miterlimit="10" cx="152.478" cy="84.737" r="1.114"/><circle fill="#5BBFD6" stroke="#000" stroke-width="2" stroke-miterlimit="10" cx="108.094" cy="74.344" r="14.502"/><circle fill="#FFF" stroke="#000" stroke-miterlimit="10" cx="108.093" cy="75.346" r="10.384"/><circle stroke="#000" stroke-miterlimit="10" cx="104.09" cy="75.843" r="4.834"/><circle fill="#FFF" cx="103.578" cy="74.435" r="1.49"/><circle fill="#FFF" stroke="#000" stroke-miterlimit="10" cx="141.739" cy="76.019" r="18.417"/><circle stroke="#000" stroke-miterlimit="10" cx="134.371" cy="76.007" r="6.992"/><circle fill="#FFF" cx="133.065" cy="73.971" r="2.156"/><circle fill="none" stroke="#000" stroke-miterlimit="10" cx="152.478" cy="90.624" r="1.114"/><circle fill="none" stroke="#000" stroke-miterlimit="10" cx="152.478" cy="95.993" r="1.114"/><path fill="none" stroke="#000" stroke-miterlimit="10" d="M70.233 131.942h109.479M90.131 131.895l.47 5.108M159.199 131.895l-.354 5.114"/><circle fill="none" stroke="#000" stroke-miterlimit="10" cx="87.089" cy="135.369" r="1.115"/><circle fill="none" stroke="#000" stroke-miterlimit="10" cx="161.78" cy="135.21" r="1.114"/><circle fill="none" stroke="#000" stroke-miterlimit="10" cx="134.359" cy="128.855" r="1.114"/><circle fill="none" stroke="#000" stroke-miterlimit="10" cx="114.09" cy="128.855" r="1.114"/><circle fill="none" stroke="#000" stroke-miterlimit="10" cx="124.225" cy="128.855" r="1.114"/><circle fill="none" stroke="#000" stroke-miterlimit="10" cx="102.366" cy="128.855" r="1.114"/><circle fill="none" stroke="#000" stroke-miterlimit="10" cx="178.098" cy="128.855" r="1.114"/><circle fill="none" stroke="#000" stroke-miterlimit="10" cx="157.828" cy="128.855" r="1.114"/><circle fill="none" stroke="#000" stroke-miterlimit="10" cx="167.963" cy="128.855" r="1.114"/><circle fill="none" stroke="#000" stroke-miterlimit="10" cx="146.104" cy="128.855" r="1.114"/><circle fill="none" stroke="#000" stroke-miterlimit="10" cx="82.098" cy="128.855" r="1.114"/><circle fill="none" stroke="#000" stroke-miterlimit="10" cx="92.231" cy="128.855" r="1.114"/><circle fill="none" stroke="#000" stroke-miterlimit="10" cx="71.348" cy="128.855" r="1.114"/><path fill="none" stroke="#000" stroke-miterlimit="10" d="M26.366 108.059a6.255 6.255 0 0 1-6.258 6.26"/><g stroke="#000" stroke-miterlimit="10"><circle fill="#5BBFD6" stroke-width="2" cx="216.241" cy="102.681" r="8.298"/><path fill="none" d="M211.469 100.469a6.255 6.255 0 0 0 6.258 6.26"/></g><path fill="none" stroke="#000" stroke-miterlimit="10" d="M18.182 47.048a6.566 6.566 0 0 1-6.572 6.572"/><path fill="#5BBFD6" stroke="#000" stroke-width="1.99994" stroke-miterlimit="10" d="M173.459 105.081l-1.71 3.584-14.33-6.833 1.71-3.584z"/><circle fill="#5BBFD6" stroke="#000" stroke-width="2" stroke-miterlimit="10" cx="176.098" cy="105.589" r="8.712"/><path fill="none" stroke="#000" stroke-miterlimit="10" d="M171.087 103.267a6.566 6.566 0 0 0 6.571 6.572"/><path opacity=".22" fill="#5BBFD6" d="M131.727 66.251c2.038-2.236 4.981-2.874 6.577-1.423 1.595 1.453 1.234 4.447-.805 6.686-2.039 2.241-4.987 2.881-6.582 1.428-1.596-1.453-1.233-4.447.805-6.687h-.001c-6.215 6.827-5.718 17.4 1.106 23.613 6.828 6.216 17.399 5.72 23.614-1.107 6.216-6.828 5.722-17.399-1.106-23.615-6.822-6.211-17.392-5.719-23.608 1.105z"/><path d="M153.542 91.305l5.98-6.566 4.058 3.695-5.98 6.567z"/><path fill="#6D6E71" stroke="#000" stroke-width="2" stroke-miterlimit="10" d="M141.958 98.349a22.196 22.196 0 0 1-14.971-5.796c-9.067-8.254-9.728-22.35-1.471-31.419a22.295 22.295 0 0 1 16.455-7.27 22.184 22.184 0 0 1 14.965 5.794c4.395 4 6.967 9.472 7.246 15.407a22.106 22.106 0 0 1-5.773 16.017 22.294 22.294 0 0 1-16.451 7.267zm.014-38.486a16.291 16.291 0 0 0-12.02 5.309c-6.028 6.624-5.546 16.916 1.074 22.944 3 2.729 6.881 4.233 10.932 4.233 4.564 0 8.943-1.935 12.014-5.308a16.139 16.139 0 0 0 4.217-11.697 16.136 16.136 0 0 0-5.291-11.251 16.203 16.203 0 0 0-10.926-4.23z"/><path fill="#D1D3D4" d="M169.308 95.148l-4.452 4.891-6.844-6.23 4.452-4.89z"/><path d="M162.489 89.623l6.104 5.557-3.779 4.152-6.104-5.558 3.779-4.151m-.066-1.413l-.673.739-3.779 4.151-.674.74.74.673 6.104 5.558.739.673.673-.739 3.779-4.152.674-.74-.74-.673-6.104-5.557-.739-.673z"/><g fill="none" stroke="#A7A9AC" stroke-miterlimit="10"><path d="M158.921 93.542l5.538 5.041M159.779 92.6l5.537 5.042M160.637 91.658l5.537 5.042M161.493 90.716l5.539 5.041M162.352 89.774l5.537 5.041"/></g><path fill="#ED1C24" stroke="#000" stroke-width="2.00008" stroke-miterlimit="10" d="M163.598 99.528l5.083-5.585 27.297 24.843-5.083 5.585z"/><path fill="none" stroke="#D1D3D4" stroke-miterlimit="10" d="M141.97 95.234c-10.563 0-19.129-8.563-19.129-19.127"/><path fill="#5BBFD6" stroke="#000" stroke-width="2" stroke-miterlimit="10" d="M174.353 96.034h3.969v16.535h-3.969zM182.723 95.115l-3.812.919 5.515 15.884 3.811-.919zM174.353 96.225l-3.74-1.11-6.653 15.578 3.739 1.108z"/><path fill="#754C29" d="M124.542 51.244h8.681v8.682h-8.681z"/><path fill="#3C2415" d="M133.223 51.244h8.683v8.682h-8.683z"/><path fill="#754C29" d="M141.905 51.244h8.684v8.682h-8.684z"/><path fill="#3C2415" d="M150.588 51.247h2.465v8.679h-2.465z"/><path fill="#754C29" d="M96.027 51.247h2.465v8.679h-2.465z"/><path fill="#3C2415" d="M98.495 51.244h8.682v8.682h-8.682z"/><path fill="#754C29" d="M107.177 51.244h8.682v8.682h-8.682z"/><path fill="#3C2415" d="M115.858 51.244h8.684v8.682h-8.684z"/><path fill="#A97C50" stroke="#000" stroke-width="2" stroke-miterlimit="10" d="M117.73 11.488h13.622V9.831a5.656 5.656 0 0 0-5.657-5.655h-2.31a5.655 5.655 0 0 0-5.655 5.655v1.657z"/><path fill="#754C29" stroke="#000" stroke-width="2" stroke-miterlimit="10" d="M84.079 61.628V40.916c0-18.272 14.812-33.084 33.084-33.084h7.379v47.801l-40.463 5.995z"/><path d="M95.792 61.632h-1.533V40.92c0-.714.022-1.459.066-2.28a37.449 37.449 0 0 1 2.45-11.337c.32-.818.673-1.636 1.051-2.436.304-.645.646-1.312 1.021-1.981a33.552 33.552 0 0 1 5.072-6.9 32.84 32.84 0 0 1 1.744-1.687 30.775 30.775 0 0 1 2-1.63 28.3 28.3 0 0 1 6.921-3.833 26.521 26.521 0 0 1 8.588-1.756h.061l.059-.002.398-.007c.119-.008.29-.008.451-.008v1.534c-.131.001-.275 0-.409.007l-.303.001a24.96 24.96 0 0 0-8.297 1.663 26.754 26.754 0 0 0-6.551 3.629c-.621.462-1.24.967-1.896 1.545a31.142 31.142 0 0 0-1.659 1.604 32.102 32.102 0 0 0-4.841 6.586 31.212 31.212 0 0 0-.972 1.887c-.364.77-.703 1.555-1.008 2.338a35.67 35.67 0 0 0-1.765 6.167 36.575 36.575 0 0 0-.583 4.704 40.07 40.07 0 0 0-.065 2.191v20.713z"/><path fill="#754C29" stroke="#000" stroke-width="2" stroke-miterlimit="10" d="M165.004 61.628V40.916c0-18.272-14.812-33.084-33.083-33.084h-7.379v47.801l40.462 5.995z"/><path d="M154.82 61.632h-1.531V40.92a36.412 36.412 0 0 0-.658-6.893 34.81 34.81 0 0 0-1.758-6.171 35.977 35.977 0 0 0-1.007-2.333 30.122 30.122 0 0 0-.972-1.889 32.087 32.087 0 0 0-4.84-6.587 28.935 28.935 0 0 0-3.554-3.149 26.926 26.926 0 0 0-6.55-3.629 25 25 0 0 0-8.3-1.664h-.261a7.27 7.27 0 0 0-.449-.008V7.063c.16 0 .328 0 .489.009l.31-.001.049.007c.029.003.057.001.092.001 2.98.108 5.87.699 8.618 1.758a28.464 28.464 0 0 1 6.92 3.833 31.317 31.317 0 0 1 1.998 1.631 32.026 32.026 0 0 1 1.746 1.685 33.57 33.57 0 0 1 5.07 6.901c.374.668.717 1.335 1.02 1.982.378.797.731 1.616 1.05 2.431a36.511 36.511 0 0 1 1.835 6.441 37.698 37.698 0 0 1 .682 7.179v20.712z"/><path fill="#754C29" d="M124.542 33.879h8.681v8.683h-8.681z"/><path fill="#A97C50" d="M124.542 42.562h8.681v8.683h-8.681z"/><path fill="#3C2415" d="M133.223 33.879h8.683v8.683h-8.683z"/><path fill="#754C29" d="M133.223 42.562h8.683v8.683h-8.683zM141.905 33.879h8.684v8.683h-8.684z"/><path fill="#A97C50" d="M141.905 42.562h8.684v8.683h-8.684z"/><path fill="#3C2415" d="M153.053 40.919v1.641h-2.465v-8.678h1.795a36.924 36.924 0 0 1 .67 7.037z"/><path fill="#754C29" d="M150.588 42.56h2.465v8.687h-2.465zM98.493 33.882v8.678h-2.465v-1.641a37.268 37.268 0 0 1 .661-7.037h1.804z"/><path fill="#A97C50" d="M96.027 42.56h2.465v8.687h-2.465z"/><path fill="#3C2415" d="M98.495 33.879h8.682v8.683h-8.682z"/><path fill="#754C29" d="M98.495 42.562h8.682v8.683h-8.682zM107.177 33.879h8.682v8.683h-8.682z"/><path fill="#A97C50" d="M107.177 42.562h8.682v8.683h-8.682z"/><path fill="#3C2415" d="M115.858 33.879h8.684v8.683h-8.684z"/><path fill="#754C29" d="M115.858 42.562h8.684v8.683h-8.684z"/><path fill="#A97C50" d="M133.222 9.553v6.964h-8.678V7.831h.596c-.146 0-.301 0-.449.008.066.009.123.009.188.009 2.906.105 5.715.693 8.343 1.705z"/><path fill="#754C29" d="M124.542 16.515h8.681v8.682h-8.681z"/><path fill="#A97C50" d="M124.542 25.196h8.681v8.683h-8.681z"/><path fill="#754C29" d="M141.909 14.876v1.641h-8.688V9.553a27.607 27.607 0 0 1 6.735 3.731 29.673 29.673 0 0 1 1.953 1.592z"/><path fill="#3C2415" d="M133.223 16.515h8.683v8.682h-8.683z"/><path fill="#754C29" d="M133.223 25.196h8.683v8.683h-8.683z"/><path fill="#A97C50" d="M143.607 16.517h-1.698v-1.641c.58.522 1.152 1.07 1.698 1.641z"/><path fill="#754C29" d="M149.558 25.195h-7.648v-8.678h1.698a32.818 32.818 0 0 1 4.955 6.744c.35.628.686 1.273.995 1.934z"/><path fill="#A97C50" d="M150.588 27.58v6.302h-8.679v-8.687h7.648c.369.776.713 1.568 1.031 2.385z"/><path fill="#754C29" d="M152.383 33.882h-1.795V27.58a35.713 35.713 0 0 1 1.795 6.302z"/><path fill="#A97C50" d="M98.493 27.58v6.302h-1.805a36.34 36.34 0 0 1 1.805-6.302z"/><path fill="#754C29" d="M107.179 14.868v1.649h-1.706a32.772 32.772 0 0 1 1.706-1.649z"/><path fill="#3C2415" d="M107.179 16.517v8.678h-7.658c.311-.661.645-1.306.997-1.935a32.739 32.739 0 0 1 4.956-6.744h1.705z"/><path fill="#754C29" d="M107.179 25.195v8.687h-8.686V27.58c.318-.817.661-1.608 1.028-2.384h7.658z"/><path fill="#A97C50" d="M115.857 9.553v6.964h-8.679v-1.649a29.84 29.84 0 0 1 1.943-1.584 27.554 27.554 0 0 1 6.736-3.731z"/><path fill="#754C29" d="M107.177 16.515h8.682v8.682h-8.682z"/><path fill="#A97C50" d="M107.177 25.196h8.682v8.683h-8.682z"/><path fill="#754C29" d="M124.544 7.831v8.687h-8.687V9.553a25.784 25.784 0 0 1 8.344-1.706c.065 0 .123 0 .188-.009-.148-.008-.303-.008-.449-.008h.604z"/><path fill="#3C2415" d="M115.858 16.515h8.684v8.682h-8.684z"/><path fill="#754C29" d="M115.858 25.196h8.684v8.683h-8.684z"/><path fill="#3C2415" stroke="#000" stroke-width="2" stroke-miterlimit="10" d="M147.275 50.273l-8.131-1.787a68.1 68.1 0 0 0-29.205 0l-8.131 1.787a20.526 20.526 0 0 0-13.917 10.791l20.977 3.779a88.373 88.373 0 0 0 31.347 0l20.977-3.779a20.524 20.524 0 0 0-13.917-10.791z"/></svg>