<svg xmlns="http://www.w3.org/2000/svg" width="242.132" height="61.244"><path fill="#462D3B" d="M9.502 37.257c-.123 1.386.332 14.076-1.453 19.54-1.103 3.372-.334 3.609 3.996 3.382 1.998-7.957 1.68-15.655-2.543-22.922z"/><path fill="#FFF8F0" d="M27.748 18.046c-3.699-1.076-7.921 1.037-8.52 5.101-.32 2.174-.295 3.858-.04 6.414.011.008.023.014.034.021.545.844.046 1.702-.641 2-.73.317-1.576.508-2.392-.137-.565-.445-.628-.939-.384-1.476l-.001.001c-.159-1.823-.511-4.077-1.246-5.772-1.994-4.594-5.841-5.044-9.267-3.89-1.947.655-3.488 2.1-4.522 3.963 1.267.196 4.992 1.772 8.663 3.977 1.885 1.132 3.755 2.428 5.271 3.789 1.993 1.789 4.248 1.45 6.002-.558 1.515-2.004 3.906-4.447 6.025-6.336 1.418-1.264 2.715-2.28 3.541-2.741.813-.453 1.904-1.053 2.225-1.879-1.392-1.261-2.989-1.964-4.748-2.477z"/><path fill="#F2692B" d="M5.293 20.309c3.426-1.154 7.272-.704 9.267 3.89.735 1.695 1.087 3.949 1.246 5.772l.001-.001a2.54 2.54 0 0 1 .146-.275c.615-.481 2.2-.858 3.235-.134-.255-2.556-.28-4.24.04-6.414.599-4.063 4.82-6.177 8.52-5.101 1.759.513 3.356 1.216 4.75 2.478.271-.423.09-.944-.238-1.576-1.928-3.721-3.402-6.743-5.108-8.893-.083-.104-.166-.197-.249-.297-.529.063-1.233-.365-1.377-.938-.453-.86-2.569-2.258-3.995-2.594l-.008.021c-.419.064-1.142-.076-1.421-.738l.003-.01c-1.688-.328-3.624-.352-5.938-.123-2.635.263-4.683.984-6.283 1.888.026.043.055.084.079.128-.102.709-.766 1.028-1.188 1.071-.011-.021-.029-.046-.043-.068-1.312.611-3.166 2.555-3.394 3.536.006.592-.572 1.188-1.103 1.256-.014-.014-.026-.03-.039-.045a.31.31 0 0 1-.102.062C.204 17.039.672 20.024-.022 23.438c-.116.574.3.771.793.834 1.034-1.863 2.575-3.308 4.522-3.963z"/><path fill="#FFF8F0" d="M25.988 5.273c-.203-.891-.334-2.244-1.354-2.239-1.506.007-2.962 2.658-3.104 3.193 1.426.336 3.542 1.733 3.995 2.594.567-1.106.721-2.426.463-3.548z"/><path fill="#462D3B" d="M15.953 29.695a2.55 2.55 0 0 0-.146.275c-.244.536-.182 1.03.384 1.476.815.645 1.661.454 2.392.137.687-.298 1.186-1.156.641-2-.011-.008-.023-.014-.034-.021-1.037-.726-2.622-.349-3.237.133zM21.522 6.249c.001-.006.006-.016.008-.021.143-.535 1.599-3.186 3.104-3.193 1.02-.005 1.15 1.348 1.354 2.239.258 1.122.104 2.442-.463 3.548.144.572.848 1.001 1.377.938h.008c1.104-2.001.987-6.042-.674-7.726-.657-.668-1.641-1.069-2.419-.498-1.599 1.171-3.146 1.77-3.713 3.965l-.003.01c.28.661 1.003.802 1.421.738z"/><path fill="#FFF8F0" d="M2.523 5.889a1.089 1.089 0 0 0-.448.033 1.325 1.325 0 0 0-.346.516c-.055.336-.034.849.038 1.616.105 1.146.745 2.949 1.571 3.877.228-.981 2.082-2.925 3.394-3.536-.525-.877-2.73-2.371-4.209-2.506z"/><path fill="#462D3B" d="M3.338 11.931c-.826-.928-1.465-2.731-1.571-3.877-.072-.768-.093-1.28-.038-1.616.049-.292.159-.448.346-.516.117-.041.264-.05.448-.033 1.479.135 3.684 1.629 4.209 2.506.014.022.031.047.043.068.422-.043 1.086-.362 1.188-1.071-.024-.044-.053-.085-.079-.128C6.738 5.365 4.106 4.49 2.2 4.126.801 3.86.672 4.583.336 5.459c-.84 2.188.308 6.002 1.86 7.683.013.015.025.031.039.045.531-.068 1.109-.664 1.103-1.256z"/><path fill="#B84526" d="M20.066 48.747c.129-2.437 1.605-4.174 3.752-4.302.445-.095.753.021.75-.321-.007-.664-1.557-.696-2.891-.12-1.886.814-2.445 2.562-2.633 4.743-.21 2.456 1.315 4.787 1.345 6.858a5.99 5.99 0 0 0 1.125-.354c-.037-1.34-1.542-4.222-1.448-6.504z"/><path fill="#462D3B" d="M20.39 55.605c-1.21.269-2.552.289-3.266.362-2.556.264-3.677 1.645-3.392 4.262 3.463.25 5.791.223 9.253.008.043-2.122-.582-3.356-1.471-4.986a5.957 5.957 0 0 1-1.124.354z"/><path fill="#FFF8F0" d="M54.634 18.637c-3.287 1.352-5.694 3.195-7.472 6.707.334.657.781 1.229 1.572 1.241.732.011.927.465 1.195 1.01.921 1.87 3.1 2.366 4.756 1.068.509-.398.804-.905 1.589-.393 1.53 1 3.057.566 4.524-.261a18.972 18.972 0 0 0-3.745-8.84c-.618-.805-1.473-.921-2.419-.532z"/><path fill="#F2692B" d="M9.502 37.257c4.223 7.267 4.541 14.965 2.543 22.922.562.017 1.125.032 1.688.05-.285-2.617.836-3.998 3.392-4.262.714-.073 2.056-.094 3.266-.362-.029-2.071-1.555-4.402-1.345-6.858.188-2.182.747-3.929 2.633-4.743 1.334-.576 2.884-.544 2.891.12.003.343-.305.227-.75.321-2.146.128-3.623 1.865-3.752 4.302-.095 2.282 1.41 5.164 1.448 6.504.889 1.63 1.514 2.864 1.471 4.986.792-.035 1.793-.075 2.822-.118a.15.15 0 0 0 .01-.017c2.247-.095 4.875-.196 6.396-.282.666-.021 1.333-.039 2-.06.688.013 1.364.003 2.03-.025 8.132-.337 14.633-3.685 19.42-10.896 3.751-5.651 5.85-11.576 5.456-18.354-.044-.763-.321-2.26-.321-2.26-1.468.826-2.994 1.26-4.524.261-.785-.514-1.08-.007-1.589.393-1.656 1.297-3.835.801-4.756-1.068-.269-.545-.463-1-1.195-1.011-.791-.012-1.238-.583-1.572-1.24-.915 1.55-2.194 3.672-3.156 6.739-1.461 4.666-1.557 7.919-2.545 12.647-.717 3.433-2.273 6.986-5.217 9.098a9.844 9.844 0 0 1-1.593.937c-1.026.449-1.367.129-1.367.129.263-1.259.395-3.022.458-4.513l.026-.022c.018-.67.024-1.338.027-2.004v-.276l-.001-.129-.005-.453c-.094-12.929-3.344-18.608-7.058-22.567-2.119 1.889-4.511 4.332-6.025 6.336-1.754 2.008-4.009 2.347-6.002.558-1.517-1.361-3.387-2.657-5.271-3.789.181 3.034-.012 6.181.067 9.006z"/><path fill-rule="evenodd" clip-rule="evenodd" fill="#462D3B" d="M9.574 25.882c-.733.079-1.3-.168-1.425-.933-.128-.773.146-1.397 1.001-1.583.822-.18 1.414.109 1.54.978.122.826-.356 1.305-1.116 1.538zM25.095 21.487c.196.966-.126 1.576-1.034 1.791-.705.166-1.228-.232-1.458-.797-.313-.771.04-1.514 1.076-1.689.46-.079 1.198-.002 1.416.695z"/><g fill="#462D3B"><path d="M68.006 22.554c.406 1.27 1.46 2.107 2.657 2.107 1.245 0 2.202-.575 2.202-1.868 0-2.729-6.919-2.705-6.919-7.805 0-2.585 1.892-4.572 4.621-4.572s4.285 1.508 5.1 3.615l-2.706 1.676c-.406-1.389-1.125-2.299-2.394-2.299-.886 0-1.509.551-1.509 1.484 0 2.969 6.919 2.37 6.919 7.9 0 2.969-2.202 4.86-5.314 4.86-2.586 0-4.478-1.341-5.315-3.304l2.658-1.794zM78.758 27.415V10.656h3.112v16.759h-3.112zM95.711 27.415V17.096c0-.479.023-1.149.023-1.149h-.048s-.287.574-.526.958l-2.873 4.836h-.048l-2.825-4.788c-.215-.384-.574-1.054-.574-1.054h-.048s.023.694.023 1.197v10.318h-3.112V10.656h3.447l2.538 4.501c.216.383.551 1.054.551 1.054h.048s.359-.671.574-1.078l2.515-4.477h3.447v16.759h-3.112zM102.657 27.415V10.656h4.645c3.807 0 5.387 3.064 5.387 5.985s-1.771 6.104-5.842 6.104h-1.077v4.669h-3.113zm4.286-7.662c1.771 0 2.657-1.437 2.657-3.064 0-1.7-.91-3.064-2.682-3.064h-1.149v6.129h1.174zM115.254 27.415V10.656h3.112v13.767h4.884v2.992h-7.996zM131.201 27.415h-3.137v-4.717l-4.046-12.042h3.495l1.677 6.009c.239.887.431 2.107.431 2.107h.048c.023-.239.191-1.221.431-2.107l1.652-6.009h3.52l-4.07 12.187v4.572zM144.805 22.554c.406 1.27 1.46 2.107 2.657 2.107 1.245 0 2.202-.575 2.202-1.868 0-2.729-6.919-2.705-6.919-7.805 0-2.585 1.892-4.572 4.621-4.572s4.285 1.508 5.1 3.615l-2.706 1.676c-.406-1.389-1.125-2.299-2.394-2.299-.886 0-1.509.551-1.509 1.484 0 2.969 6.919 2.37 6.919 7.9 0 2.969-2.202 4.86-5.314 4.86-2.586 0-4.478-1.341-5.315-3.304l2.658-1.794zM165.47 24.35c-.838 1.963-2.395 3.304-4.98 3.304-4.62 0-5.889-4.262-5.889-8.618 0-4.357 1.269-8.619 5.889-8.619 2.729 0 4.286 1.508 5.1 3.615l-2.705 1.676c-.407-1.389-1.125-2.299-2.395-2.299-2.13 0-2.776 2.61-2.776 5.627 0 3.016.646 5.626 2.776 5.626 1.197 0 1.916-.838 2.322-2.107l2.658 1.795zM175.432 27.415v-6.297h-4.31v6.297h-3.112V10.656h3.112v7.47h4.31v-7.47h3.112v16.759h-3.112zM182.378 27.415V10.656h8.906v2.993h-5.794v4.285h4.884v2.992h-4.884v3.496h5.794v2.992h-8.906zM194.902 27.415V10.656h4.334c4.62 0 6.129 4.022 6.129 8.38 0 4.356-1.509 8.379-6.129 8.379h-4.334zm4.334-2.993c2.13 0 3.017-2.371 3.017-5.387 0-3.017-.887-5.387-3.017-5.387h-1.222v10.773h1.222zM215.567 10.656h3.112v11.181c0 4.046-2.179 5.817-5.1 5.817s-5.195-1.771-5.195-5.842V10.656h3.112V21.98c0 1.652.599 2.682 2.035 2.682 1.509 0 2.035-1.077 2.035-2.706v-11.3zM222.514 27.415V10.656h3.112v13.767h4.884v2.992h-7.996zM232.907 27.415V10.656h8.906v2.993h-5.794v4.285h4.884v2.992h-4.884v3.496h5.794v2.992h-8.906z"/></g><g fill="#462D3B"><path d="M73.497 50.677l-.254-1.98h-3.275l-.203 1.98h-4.418l3.809-17.773h4.977l3.809 17.773h-4.445zm-1.549-11.019c-.152-1.016-.279-2.463-.279-2.463h-.051s-.152 1.447-.305 2.463l-.711 5.332h2.057l-.711-5.332zM81.824 50.677V32.904h5.281c4.062 0 5.738 3.504 5.738 6.322 0 3.402-1.904 6.5-5.916 6.5h-.889v4.951h-4.214zm5.002-8.734c1.32 0 1.828-1.295 1.828-2.641 0-1.447-.533-2.641-1.854-2.641h-.762v5.281h.788zM96.905 50.677V32.904h5.281c4.062 0 5.738 3.504 5.738 6.322 0 3.402-1.904 6.5-5.916 6.5h-.889v4.951h-4.214zm5.002-8.734c1.32 0 1.828-1.295 1.828-2.641 0-1.447-.533-2.641-1.854-2.641h-.762v5.281h.788zM111.225 41.791c0-4.723 1.092-9.242 6.018-9.242 4.951 0 6.018 4.52 6.018 9.242s-1.066 9.242-6.018 9.242c-4.927 0-6.018-4.52-6.018-9.242zm7.82 0c0-3.25-.229-5.18-1.803-5.18-1.549 0-1.803 1.93-1.803 5.18s.279 5.18 1.803 5.18c1.549-.001 1.803-1.93 1.803-5.18zM127.575 50.677V32.904h4.215v17.773h-4.215zM144.967 50.677l-3.047-6.805c-.584-1.295-1.092-2.92-1.092-2.92h-.051s.051 1.701.051 3.148v6.576h-3.961V32.904h4.316l2.768 6.094c.584 1.27 1.219 3.047 1.219 3.047h.051s-.051-1.828-.051-3.326v-5.814h3.986v17.773h-4.189zM156.088 50.677V36.966h-2.615v-4.062h9.471v4.062h-2.615v13.711h-4.241zM177.39 50.677v-9.039c0-1.117.076-2.133.076-2.133h-.051s-.381.762-1.066 1.701l-1.98 2.717h-.102l-1.98-2.717a11.334 11.334 0 0 1-1.041-1.701h-.051s.025 1.041.025 2.133v9.039h-3.961V32.904h4.215l1.574 2.26a25.754 25.754 0 0 1 1.244 1.955h.051s.533-.863 1.27-1.955l1.549-2.26h4.189v17.773h-3.961zM186.428 50.677V32.904h9.877v3.859h-5.662v3.402h4.723v3.707h-4.723v2.945h5.662v3.859h-9.877zM209.228 50.677l-3.047-6.805c-.584-1.295-1.092-2.92-1.092-2.92h-.051s.051 1.701.051 3.148v6.576h-3.961V32.904h4.316l2.768 6.094c.584 1.27 1.219 3.047 1.219 3.047h.051s-.051-1.828-.051-3.326v-5.814h3.986v17.773h-4.189zM220.348 50.677V36.966h-2.615v-4.062h9.471v4.062h-2.615v13.711h-4.241zM234.108 45.218c.432 1.092 1.371 1.828 2.412 1.828.863 0 1.32-.508 1.32-1.143 0-2.438-6.906-2.996-6.906-8.201 0-2.92 2.184-5.154 5.434-5.154 2.514 0 4.418 1.346 5.357 3.834l-3.352 1.98c-.279-1.168-1.092-2.082-2.082-2.082-.736 0-1.219.508-1.219 1.168 0 2.514 6.982 2.59 6.982 8.252 0 3.326-2.438 5.332-5.688 5.332-2.869 0-4.723-1.574-5.789-3.682l3.531-2.132z"/></g><path fill="#462D3B" d="M65.362 0h176.77v4.99H65.362zM65.362 56.255h176.77v4.988H65.362z"/></svg>