<svg xmlns="http://www.w3.org/2000/svg" width="459.702" height="520.228"><ellipse cx="229.323" cy="486.075" fill="#D4D5D6" rx="129.809" ry="23.825"/><g fill="#414042"><path d="M225.101 374.892l-45.093-.072-.035 99.228.742.001-23.586 12.518h67.972V450.49l-.023.013zM278.205 474.117l.582.001.033-99.226-45.094-.072-.027 75.675-.009-.005v36.077h67.971z"/></g><circle cx="66.588" cy="422.66" r="58.955" fill="#414042"/><path fill="#9FA1A4" d="M176.453 449.213v5.502c-8.388-.007-17.418-.034-25.219 3.275-5.95 2.524-11.378 6.147-17.484 8.33-1.047.374-2.178.73-3.289.83a6.494 6.494 0 0 0-.275-.026c1.019-.886 3.093-1.841 3.784-2.223 4.032-2.231 9.418-3.757 12.49-7.372 3.077-3.621 3.316-8.804.332-12.456-2.72-3.327-8.476-3.354-12.317-3.204-7.825.304-15.438 2.277-23.019 4.165-1.482-2.53-4.126-4.222-7.149-4.222-4.648 0-8.415 3.98-8.415 8.891s3.767 8.891 8.415 8.891c3.057 0 5.724-1.728 7.197-4.304 7.851-1.925 15.68-4.138 23.797-4.453 1.536-.06 3.018.003 4.492.374a2.799 2.799 0 0 1-.18.51c-.17.366-3.271 1.923-4.413 2.498-2.46 1.24-4.947 2.411-7.332 3.795-3.793 2.202-8.198 6.026-6.981 10.966 1.444 5.865 7.099 7.674 12.436 6.797 6.459-1.062 12.71-5.16 18.441-8.109 7.634-3.93 16.268-3.955 24.689-3.951v4.9h51.493v-19.403h-51.493z"/><path fill="#DBB69A" d="M420.247 264.365l-3.329-26.595c-.457-3.648-3.506-5.838-7.128-5.564l-26.937 7.957c-2.86 1.623-4.78 5.191-4.036 8.673l-25.102 6.422 7.022 28.188 25.557-6.535c1.479 2.119 4.049 3.179 6.544 2.441l22.281-6.595c3.276-.968 5.582-4.745 5.128-8.392zM102.459 254.726l-25.102-6.422c.744-3.481-1.176-7.05-4.036-8.673l-26.937-7.957c-3.622-.273-6.671 1.916-7.128 5.564l-3.329 26.595c-.454 3.646 1.852 7.424 5.127 8.392l22.281 6.595c2.495.737 5.065-.322 6.544-2.442l25.557 6.536 7.023-28.188z"/><path fill="#414042" d="M375.513 283.088l-8.882-34.673-42.739 11.336-52.169-14.176h-83.221l-53.631 14.144v.186l-45.328-12.022-8.881 34.673 54.209 14.38v113.16h189.052V296.772z"/><path d="M397.185 0h17.91v512.96h-17.91zM43.945 0h17.91v512.96h-17.91"/><path fill="#C09E87" d="M60.705 236.388c1.383.392 3.107 3.23 1.896 6.272-.996 2.5-5.25.478-3.218 1.826 1.662 1.104 6.919 2.937 3.655 9.738-1.127 2.357-5.876 2.833-5.933 2.777 1.714 1.746 1.231 4.866.03 6.751-.588.928-1.382 1.91-2.398 2.355-.29.125-3.501.816-3.614.406.466 1.686 1.976 3.109.601 6.142-1.503 3.304-5.857.898-8.646.225-.437-.104-8.228-2.093-8.212-2.212-.001-.014 6.195-38.303 6.195-38.303s1.532-1.165 3.673-.767c2.128.401 15.659 4.702 15.971 4.79z" opacity=".3"/><path fill="#DBB69A" d="M31.674 244.077c-.682 2.702 1.275 5.547 4.349 6.322l19.789 5.001c3.072.779 6.146-.795 6.827-3.497.679-2.7-1.277-5.544-4.353-6.322l-19.788-5.001c-3.074-.778-6.143.794-6.824 3.497zM30.441 254.759c-.683 2.701 1.497 5.603 4.844 6.444l14.147 3.571c3.345.842 6.639-.674 7.322-3.374.683-2.699-1.498-5.601-4.845-6.444l-14.146-3.574c-3.346-.843-6.641.678-7.322 3.377zM31.083 265.903c-.678 2.699 1.5 5.6 4.846 6.444l7.646 1.931c3.347.846 6.641-.675 7.322-3.375.682-2.699-1.5-5.602-4.846-6.445l-7.643-1.93c-3.345-.843-6.642.676-7.325 3.375z"/><path fill="#FFF" d="M60.767 251.418c.516-2.034-.199-3.987-1.592-4.345-1.393-.354-2.956 1.021-3.471 3.055-.521 2.032.195 3.989 1.586 4.342 1.394.354 2.959-1.017 3.477-3.052z"/><path fill="#DBB69A" d="M30.449 232.756c-.682 2.701 1.499 5.601 4.849 6.447l18.031 4.553c3.349.844 6.644-.676 7.326-3.376.681-2.7-1.499-5.603-4.848-6.447l-18.034-4.553c-3.347-.843-6.643.676-7.324 3.376z"/><path fill="#FFF" d="M58.123 239.729c.518-2.034-.196-3.988-1.591-4.344-1.393-.355-2.954 1.018-3.469 3.054-.521 2.032.195 3.99 1.589 4.342 1.392.355 2.953-1.019 3.471-3.052zM55.608 261.379c.519-2.035-.197-3.987-1.588-4.346-1.392-.353-2.955 1.022-3.473 3.054-.52 2.035.197 3.988 1.589 4.346 1.394.353 2.954-1.022 3.472-3.054zM49.444 270.292c.485-1.91-.025-3.705-1.133-3.986-1.113-.287-2.421 1.047-2.905 2.957-.488 1.91.025 3.704 1.134 3.985 1.113.285 2.417-1.047 2.904-2.956z"/><path fill="#C09E87" d="M65.055 236.256c1.417-2.388 1.361-4.962-.123-5.718l-8.98-4.583c-1.482-.758-3.853.576-5.271 2.964-1.413 2.392-1.355 4.963.128 5.719l8.976 4.58c1.486.761 3.856-.574 5.27-2.962z" opacity=".3"/><path fill="#DBB69A" d="M73.047 240.032c1.44-2.479.745-5.527-1.547-6.775L57.644 225.7c-2.293-1.25-5.344-.241-6.785 2.237-1.436 2.478-.74 5.529 1.548 6.776l13.857 7.558c2.293 1.248 5.343.24 6.783-2.239z"/><path fill="#FFF" d="M56.727 230.879c.695-1.982.155-3.99-1.199-4.466-1.356-.479-3.034.751-3.729 2.729-.696 1.984-.158 3.993 1.199 4.469 1.354.477 3.033-.753 3.729-2.732z"/><path fill="#E6E7E8" d="M111.283 290.589l-9.572-2.557 9.21-34.477 9.573 2.558zM93.725 285.986l-9.779-2.613 9.214-34.477 9.78 2.614z"/><path fill="#C09E87" d="M395.47 236.92c-1.383.392-3.107 3.23-1.896 6.272.996 2.5 5.25.478 3.218 1.826-1.662 1.104-6.919 2.937-3.655 9.738 1.127 2.357 5.876 2.833 5.933 2.777-1.714 1.746-1.231 4.866-.03 6.751.588.928 1.382 1.91 2.398 2.355.29.125 3.501.816 3.614.406-.466 1.686-1.976 3.109-.601 6.142 1.503 3.304 5.857.898 8.646.225.437-.104 8.228-2.093 8.212-2.212.001-.014-6.195-38.303-6.195-38.303s-1.532-1.165-3.673-.767c-2.128.401-15.659 4.702-15.971 4.79z" opacity=".3"/><path fill="#DBB69A" d="M424.5 244.609c.682 2.702-1.275 5.547-4.349 6.322l-19.789 5.001c-3.072.779-6.146-.795-6.827-3.497-.679-2.7 1.277-5.544 4.353-6.322l19.788-5.001c3.074-.778 6.144.794 6.824 3.497zM425.734 255.291c.683 2.701-1.497 5.603-4.844 6.444l-14.147 3.571c-3.345.842-6.639-.674-7.322-3.374-.683-2.699 1.498-5.601 4.845-6.444l14.146-3.574c3.346-.843 6.641.678 7.322 3.377zM425.091 266.436c.678 2.699-1.5 5.6-4.846 6.444l-7.646 1.931c-3.347.846-6.641-.675-7.322-3.375-.682-2.699 1.5-5.602 4.846-6.445l7.643-1.93c3.346-.844 6.643.675 7.325 3.375z"/><path fill="#FFF" d="M395.408 251.95c-.516-2.034.199-3.987 1.592-4.345 1.393-.354 2.956 1.021 3.471 3.055.521 2.032-.195 3.989-1.586 4.342-1.394.354-2.959-1.017-3.477-3.052z"/><path fill="#DBB69A" d="M425.726 233.288c.682 2.701-1.499 5.601-4.849 6.447l-18.031 4.553c-3.349.844-6.644-.676-7.326-3.376-.681-2.7 1.499-5.603 4.848-6.447l18.034-4.553c3.347-.843 6.642.676 7.324 3.376z"/><path fill="#FFF" d="M398.052 240.261c-.518-2.034.196-3.988 1.591-4.344 1.393-.355 2.954 1.018 3.469 3.054.521 2.032-.195 3.99-1.589 4.342-1.393.355-2.953-1.019-3.471-3.052zM400.567 261.911c-.519-2.035.197-3.987 1.588-4.346 1.392-.353 2.955 1.022 3.473 3.054.52 2.035-.197 3.988-1.589 4.346-1.394.353-2.955-1.022-3.472-3.054zM406.731 270.824c-.485-1.91.025-3.705 1.133-3.986 1.113-.287 2.421 1.047 2.905 2.957.488 1.91-.025 3.704-1.134 3.985-1.113.285-2.417-1.047-2.904-2.956z"/><path fill="#C09E87" d="M391.12 236.788c-1.417-2.388-1.361-4.962.123-5.718l8.98-4.583c1.482-.758 3.853.576 5.271 2.964 1.413 2.392 1.355 4.963-.128 5.719l-8.976 4.58c-1.486.761-3.856-.574-5.27-2.962z" opacity=".3"/><path fill="#DBB69A" d="M383.127 240.564c-1.44-2.479-.745-5.527 1.547-6.775l13.856-7.557c2.293-1.25 5.344-.241 6.785 2.237 1.436 2.478.74 5.529-1.548 6.776l-13.857 7.558c-2.292 1.248-5.342.24-6.783-2.239z"/><path fill="#FFF" d="M399.448 231.411c-.695-1.982-.155-3.99 1.199-4.466 1.356-.479 3.034.751 3.729 2.729.696 1.984.158 3.993-1.199 4.469-1.354.477-3.033-.752-3.729-2.732z"/><path fill="#E6E7E8" d="M335.66 256.648l9.572-2.557 9.21 34.476-9.571 2.558zM353.242 252.044l9.779-2.614 9.214 34.477-9.779 2.613zM323.923 278.118c-63.029-5.498-126.059 5.498-189.088 0v-16.171c63.029 5.498 126.059-5.498 189.088 0v16.171zM323.923 306.4c-63.029-5.498-126.059 5.498-189.088 0v-16.171c63.029 5.498 126.059-5.498 189.088 0V306.4zM323.923 334.682c-63.029-5.498-126.059 5.498-189.088 0v-16.17c63.029 5.498 126.059-5.498 189.088 0v16.17zM323.923 362.964c-63.029-5.498-126.059 5.498-189.088 0v-16.171c63.029 5.498 126.059-5.498 189.088 0v16.171zM323.923 391.246c-63.029-5.498-126.059 5.498-189.088 0v-16.171c63.029 5.498 126.059-5.498 189.088 0v16.171z"/><path fill="#E6E7E8" d="M128.06 294.963l-9.521-2.544 9.21-34.476 9.521 2.544zM318.889 261.018l9.521-2.544 9.21 34.476-9.52 2.544z"/><path d="M114.593 0h17.91v512.96h-17.91zM326.537 0h17.91v512.96h-17.91z"/><path fill="#E6E7E8" d="M176.709 294.711h109.577v31.67H176.709z"/><g fill="#3D3D3E"><path d="M197.467 302.521v14.344c0 2.515-2.125 5.524-6.588 5.524-4.462 0-6.623-3.01-6.623-5.524v-14.344c0-2.514 2.161-5.56 6.623-5.56 4.463.001 6.588 3.047 6.588 5.56zm-4.463.037c0-.744-.85-2.055-2.125-2.055-1.311 0-2.16 1.311-2.16 2.055v14.272c0 .743.85 2.019 2.16 2.019 1.275 0 2.125-1.275 2.125-2.019v-14.272zM213.721 302.521v14.344c0 2.515-2.124 5.524-6.587 5.524-4.462 0-6.623-3.01-6.623-5.524v-14.344c0-2.514 2.161-5.56 6.623-5.56 4.463.001 6.587 3.047 6.587 5.56zm-4.462.037c0-.744-.85-2.055-2.125-2.055-1.311 0-2.16 1.311-2.16 2.055v14.272c0 .743.85 2.019 2.16 2.019 1.275 0 2.125-1.275 2.125-2.019v-14.272zM229.975 302.521v14.344c0 2.515-2.124 5.524-6.587 5.524-4.462 0-6.623-3.01-6.623-5.524v-14.344c0-2.514 2.161-5.56 6.623-5.56 4.463.001 6.587 3.047 6.587 5.56zm-4.462.037c0-.744-.85-2.055-2.125-2.055-1.311 0-2.16 1.311-2.16 2.055v14.272c0 .743.85 2.019 2.16 2.019 1.275 0 2.125-1.275 2.125-2.019v-14.272zM246.231 302.521v14.344c0 2.515-2.125 5.524-6.588 5.524-4.462 0-6.623-3.01-6.623-5.524v-14.344c0-2.514 2.161-5.56 6.623-5.56 4.463.001 6.588 3.047 6.588 5.56zm-4.463.037c0-.744-.85-2.055-2.125-2.055-1.311 0-2.16 1.311-2.16 2.055v14.272c0 .743.85 2.019 2.16 2.019 1.275 0 2.125-1.275 2.125-2.019v-14.272zM262.485 302.521v14.344c0 2.515-2.124 5.524-6.587 5.524-4.462 0-6.623-3.01-6.623-5.524v-14.344c0-2.514 2.161-5.56 6.623-5.56 4.463.001 6.587 3.047 6.587 5.56zm-4.462.037c0-.744-.85-2.055-2.125-2.055-1.311 0-2.16 1.311-2.16 2.055v14.272c0 .743.85 2.019 2.16 2.019 1.275 0 2.125-1.275 2.125-2.019v-14.272zM278.739 302.521v14.344c0 2.515-2.124 5.524-6.587 5.524-4.462 0-6.623-3.01-6.623-5.524v-14.344c0-2.514 2.161-5.56 6.623-5.56 4.463.001 6.587 3.047 6.587 5.56zm-4.462.037c0-.744-.85-2.055-2.125-2.055-1.311 0-2.16 1.311-2.16 2.055v14.272c0 .743.85 2.019 2.16 2.019 1.275 0 2.125-1.275 2.125-2.019v-14.272z"/></g><path d="M185.241 0h17.91v512.96h-17.91zM255.889 0h17.91v512.96h-17.91z"/></svg>