<svg width="20" height="20" viewBox="0 0 86 94" xmlns="http://www.w3.org/2000/svg">
    <!-- Transparent padding space at top -->
    <rect width="86" height="10" fill="transparent"/>
    <g transform="translate(0, 0)">
        <circle cx="43" cy="43" fill="#fff" r="43"/>
        <path d="m43 3c-22.09 0-40 17.91-40 40s17.91 40 40 40 40-17.91 40-40-17.91-40-40-40zm-3 67.5c-4.36-2.02-12.36-6.73-16.96-15.5-6.24-11.91-6.04-26-6.04-26l7.67-3.53c.41 13.13 2.63 20.43 5.46 25.82 2.53 4.84 6.57 8.11 9.87 10.14v9.08zm2.97-44.69-11.94 5.52c-.22-2.52-.37-5.37-.41-8.62l12.35-5.71 12.42 5.73c-.04 3.24-.19 6.1-.41 8.62l-12.01-5.53zm19.99 29.19c-4.6 8.78-12.61 13.48-16.96 15.5v-9.08c3.3-2.03 7.34-5.3 9.87-10.14 2.82-5.39 5.05-12.69 5.46-25.82l7.67 3.53s.2 14.09-6.04 26z" fill="#c4511c"/>
    </g>
</svg>
